<svg id="Grupo_616" data-name="Grupo 616" xmlns="http://www.w3.org/2000/svg" width="31.934" height="31.92" viewBox="0 0 31.934 31.92">
  <path id="Trazado_293" data-name="Trazado 293" d="M9.905,32.653a15.928,15.928,0,0,1-14.584,15.9,7.415,7.415,0,0,1-1.364.084A16.148,16.148,0,0,1-9.5,48.267,16.044,16.044,0,0,1-22.029,32.653,15.969,15.969,0,0,1-6.043,16.712,15.927,15.927,0,0,1,9.905,32.653Z" transform="translate(22.029 -16.712)" fill="#7cdec8"/>
  <g id="Grupo_615" data-name="Grupo 615" transform="translate(9.89 8.481)">
    <path id="Trazado_294" data-name="Trazado 294" d="M-12.822,21.947a1.87,1.87,0,0,1,1.448-.5,8.108,8.108,0,0,1,2.179.3l.617-3.353a11.7,11.7,0,0,0-3.955-.571,6.491,6.491,0,0,0-3.292.7A3.7,3.7,0,0,0-17.6,20.347a8.671,8.671,0,0,0-.5,3.368v1.318h-2.636v3.833h2.636V40.9a16.148,16.148,0,0,0,3.459.366,7.415,7.415,0,0,0,1.364-.084V28.866h3.5V25.034h-3.5V23.8A2.592,2.592,0,0,1-12.822,21.947Z" transform="translate(20.731 -17.825)" fill="#f2f2f2"/>
  </g>
</svg>
