<svg id="Grupo_620" data-name="Grupo 620" xmlns="http://www.w3.org/2000/svg" width="31.934" height="31.951" viewBox="0 0 31.934 31.951">
  <path id="Trazado_298" data-name="Trazado 298" d="M24.87,32.7A15.967,15.967,0,1,1,8.9,16.721,15.972,15.972,0,0,1,24.87,32.7Z" transform="translate(7.064 -16.721)" fill="#7cdec8"/>
  <g id="Grupo_619" data-name="Grupo 619" transform="translate(7.33 7.361)">
    <path id="Trazado_299" data-name="Trazado 299" d="M8.886,17.687H-3.808A2.052,2.052,0,0,0-6.1,20V32.66a2.032,2.032,0,0,0,2.217,2.263H8.886a2.062,2.062,0,0,0,2.286-2.286V19.943A2.046,2.046,0,0,0,8.886,17.687Zm-1.4,1.943c1.714,0,1.714,0,1.714,1.715,0,1.669,0,1.669-1.684,1.669s-1.692,0-1.692-1.692S5.823,19.63,7.484,19.63ZM2.546,22.96a3.342,3.342,0,1,1-.061,6.683,3.342,3.342,0,0,1,.061-6.683ZM9.2,31.929c-.015.808-.221,1.036-1.029,1.036H-3.107c-.792,0-1.013-.229-1.013-1.036,0-2.065.008-4.183-.03-6.279,0-.594.16-.732.716-.709.785.053.8.023.709.792A5.331,5.331,0,0,0,1.442,31.5a5.3,5.3,0,0,0,6.286-6.18c-.061-.3.008-.358.282-.358C9.2,24.88,9.2,24.857,9.2,26.092Z" transform="translate(6.102 -17.687)" fill="#f2f2f2" fill-rule="evenodd"/>
  </g>
</svg>
