<svg xmlns="http://www.w3.org/2000/svg" width="98.213" height="49.966" viewBox="0 0 98.213 49.966">
  <g id="Grupo_769" data-name="Grupo 769" transform="translate(11072 -6485)">
    <g id="Grupo_361" data-name="Grupo 361" transform="translate(-11072 6485)">
      <g id="Grupo_359" data-name="Grupo 359" transform="translate(0 0)">
        <path id="Trazado_146" data-name="Trazado 146" d="M107.269,155.708a15.1,15.1,0,0,1,5.116.79,10.936,10.936,0,0,1,3.657,2.1,8.668,8.668,0,0,1,2.2,3.014,8.781,8.781,0,0,1,.738,3.527,9.093,9.093,0,0,1-.66,3.371,9.63,9.63,0,0,1-1.989,3.075,12.028,12.028,0,0,1-3.353,2.432,15.744,15.744,0,0,1-4.752,1.442q-.052,1.268-.087,2.328-.017.452-.035.9t-.026.825q-.009.374-.017.652c-.006.186-.009.313-.009.382a15.856,15.856,0,0,1-.287,2.528,15.224,15.224,0,0,1-.73,2.563,14.317,14.317,0,0,1-1.164,2.371,9.177,9.177,0,0,1-1.6,1.963,7.322,7.322,0,0,1-2.041,1.338,6.072,6.072,0,0,1-2.467.5,4.522,4.522,0,0,1-2.545-.738,7.061,7.061,0,0,1-1.963-1.989,12.862,12.862,0,0,1-1.425-2.884,25.235,25.235,0,0,1-.947-3.414,32.613,32.613,0,0,1-.53-3.588q-.165-1.807-.165-3.405a27.309,27.309,0,0,1,.5-5.3,24.639,24.639,0,0,1,1.442-4.786,20.244,20.244,0,0,1,2.276-4.074,15.837,15.837,0,0,1,3.014-3.162,13.177,13.177,0,0,1,3.648-2.041A12.123,12.123,0,0,1,107.269,155.708ZM96.845,175.34q0,.712.009,1.92t.1,2.58q.087,1.372.278,2.78a14.361,14.361,0,0,0,.565,2.545,6.06,6.06,0,0,0,.938,1.859,1.73,1.73,0,0,0,1.416.721,2.074,2.074,0,0,0,1.511-.617,4.895,4.895,0,0,0,1.043-1.6,11.193,11.193,0,0,0,.66-2.224q.243-1.242.365-2.493t.156-2.389q.035-1.138.035-1.937v-.816a24.483,24.483,0,0,1-2.267-1.008,5.542,5.542,0,0,1-1.242-.834,1.789,1.789,0,0,1-.53-.843,4.2,4.2,0,0,1-.113-1.034q0-.313.017-.617a2.069,2.069,0,0,1,.1-.539.96.96,0,0,1,.226-.382.552.552,0,0,1,.408-.148.747.747,0,0,1,.321.07q.147.07.373.191.574.313,1.043.513t.8.321a5.549,5.549,0,0,0,.7.208q0-.225.008-.895t.1-1.529a14.545,14.545,0,0,1,.321-1.8,6.8,6.8,0,0,1,.66-1.72,3.994,3.994,0,0,1,1.129-1.294,2.818,2.818,0,0,1,1.72-.513,3.536,3.536,0,0,1,.643.061,1.738,1.738,0,0,1,.6.226,1.43,1.43,0,0,1,.452.443,1.274,1.274,0,0,1,.182.712.981.981,0,0,1-.009.165.58.58,0,0,0-.008.113l-1.06,4.465-.156,1.373a10.878,10.878,0,0,0,2.936-.834,7.365,7.365,0,0,0,2.041-1.355,5.141,5.141,0,0,0,1.2-1.72,4.965,4.965,0,0,0,.391-1.928,5.744,5.744,0,0,0-.373-1.989,4.677,4.677,0,0,0-1.294-1.85,7.13,7.13,0,0,0-2.467-1.373,11.988,11.988,0,0,0-3.892-.538,7.386,7.386,0,0,0-3.179.669,8.6,8.6,0,0,0-2.537,1.816,11.812,11.812,0,0,0-1.928,2.675,18.258,18.258,0,0,0-1.346,3.258,22.616,22.616,0,0,0-.782,3.561A26.208,26.208,0,0,0,96.845,175.34Z" transform="translate(-92.189 -154.023)" fill="#302c42"/>
        <path id="Trazado_147" data-name="Trazado 147" d="M185.605,209.164a9.312,9.312,0,0,1,.756,2.128,9.417,9.417,0,0,1,.026,4.213,10.639,10.639,0,0,1-.652,2.015,9.764,9.764,0,0,1-1.042,1.824,7.439,7.439,0,0,1-1.407,1.477,6.666,6.666,0,0,1-1.729.99,5.468,5.468,0,0,1-2,.365,4.886,4.886,0,0,1-2.615-.669,5.561,5.561,0,0,1-1.781-1.746,7.734,7.734,0,0,1-1.016-2.432,11.846,11.846,0,0,1-.322-2.745,10.863,10.863,0,0,1,.573-3.57,8.622,8.622,0,0,1,1.642-2.884,7.592,7.592,0,0,1,2.615-1.928,8.3,8.3,0,0,1,3.475-.7,9.175,9.175,0,0,1,3.093.512,11.769,11.769,0,0,1,2.7,1.373,15.467,15.467,0,0,1,2.345,1.972,29.968,29.968,0,0,1,2.024,2.293l-.33,2.45a10.084,10.084,0,0,0-1.268-1.355q-.8-.73-1.694-1.425t-1.763-1.312q-.869-.617-1.494-1.034Zm-5.369,9.677a1.586,1.586,0,0,0,1.147-.6,5.666,5.666,0,0,0,.973-1.511,10.426,10.426,0,0,0,.669-2.015,9.476,9.476,0,0,0,.252-2.111,8.53,8.53,0,0,0-.122-1.485,4.567,4.567,0,0,0-.365-1.19,2.2,2.2,0,0,0-.625-.8,1.463,1.463,0,0,0-.921-.3,1.957,1.957,0,0,0-1.355.608A5.705,5.705,0,0,0,178.76,211a9.927,9.927,0,0,0-1.042,4.3,6.482,6.482,0,0,0,.139,1.373,3.527,3.527,0,0,0,.435,1.12,2.178,2.178,0,0,0,1.946,1.051Z" transform="translate(-149.242 -188.819)" fill="#302c42"/>
        <path id="Trazado_148" data-name="Trazado 148" d="M235.972,209.164a9.3,9.3,0,0,1,.756,2.128,9.412,9.412,0,0,1,.026,4.213,10.641,10.641,0,0,1-.651,2.015,9.783,9.783,0,0,1-1.043,1.824,7.431,7.431,0,0,1-1.408,1.477,6.66,6.66,0,0,1-1.728.99,5.468,5.468,0,0,1-2,.365,4.887,4.887,0,0,1-2.615-.669,5.564,5.564,0,0,1-1.781-1.746,7.733,7.733,0,0,1-1.016-2.432,11.847,11.847,0,0,1-.322-2.745,10.863,10.863,0,0,1,.573-3.57,8.622,8.622,0,0,1,1.642-2.884,7.6,7.6,0,0,1,2.615-1.928,8.3,8.3,0,0,1,3.475-.7,9.173,9.173,0,0,1,3.093.512,11.784,11.784,0,0,1,2.7,1.373,15.468,15.468,0,0,1,2.345,1.972,29.975,29.975,0,0,1,2.024,2.293l-.33,2.45a10.1,10.1,0,0,0-1.268-1.355q-.8-.73-1.694-1.425t-1.763-1.312q-.869-.617-1.494-1.034Zm-5.369,9.677a1.586,1.586,0,0,0,1.147-.6,5.673,5.673,0,0,0,.973-1.511,10.405,10.405,0,0,0,.669-2.015,9.479,9.479,0,0,0,.252-2.111,8.558,8.558,0,0,0-.122-1.485,4.592,4.592,0,0,0-.365-1.19,2.2,2.2,0,0,0-.625-.8,1.462,1.462,0,0,0-.921-.3,1.956,1.956,0,0,0-1.355.608A5.693,5.693,0,0,0,229.127,211a9.921,9.921,0,0,0-1.043,4.3,6.461,6.461,0,0,0,.139,1.373,3.52,3.52,0,0,0,.434,1.12,2.178,2.178,0,0,0,1.946,1.051Z" transform="translate(-184.442 -188.819)" fill="#302c42"/>
        <path id="Trazado_149" data-name="Trazado 149" d="M280.837,183.468a2.419,2.419,0,0,1-1.746-.825,7.226,7.226,0,0,1-1.407-2.215,15.058,15.058,0,0,1-.938-3.223,21.141,21.141,0,0,1-.339-3.848,27.309,27.309,0,0,1,.226-3.362q.225-1.815.66-3.744t1.033-3.874a39.494,39.494,0,0,1,1.355-3.735,31.489,31.489,0,0,1,1.642-3.344,18.161,18.161,0,0,1,1.859-2.71,8.746,8.746,0,0,1,2.033-1.816,4.034,4.034,0,0,1,2.154-.66,2.11,2.11,0,0,1,1.233.339,2.351,2.351,0,0,1,.764.895,4.346,4.346,0,0,1,.391,1.26,9.067,9.067,0,0,1,.113,1.433,15.417,15.417,0,0,1-.374,3.327,25.756,25.756,0,0,1-1.008,3.405q-.634,1.711-1.468,3.431t-1.737,3.414q-.9,1.694-1.816,3.336t-1.711,3.205a3.726,3.726,0,0,0-.182.452q-.1.278-.182.6c-.058.215-.116.443-.174.686s-.1.481-.139.712v.243a3.985,3.985,0,0,0,.1.877,4.768,4.768,0,0,0,.234.764,2.285,2.285,0,0,0,.3.539q.156.2.3.2a2.472,2.472,0,0,0,.756-.139,6.918,6.918,0,0,0,.9-.374q.478-.234.982-.538t.973-.617q1.095-.73,2.294-1.685l1.424,3.649a35.837,35.837,0,0,1-3.058,1.981q-.66.365-1.364.721t-1.416.634a10.944,10.944,0,0,1-1.39.443A5.365,5.365,0,0,1,280.837,183.468Zm.017-13.9q.781-1.39,1.659-3.128t1.659-3.579q.782-1.841,1.355-3.674a17.14,17.14,0,0,0,.73-3.414q0-.5-.026-.86t-.165-.356a1.575,1.575,0,0,0-1.086.651,8.751,8.751,0,0,0-1.164,1.763,20.636,20.636,0,0,0-1.112,2.589q-.53,1.477-.947,3.144a32.385,32.385,0,0,0-.66,3.431A25.083,25.083,0,0,0,280.855,169.57Z" transform="translate(-220.933 -150.111)" fill="#302c42"/>
        <path id="Trazado_150" data-name="Trazado 150" d="M308.153,219.084a13.645,13.645,0,0,0,3.2-.348,12.089,12.089,0,0,0,2.615-.938,11.029,11.029,0,0,0,2.12-1.381,13.959,13.959,0,0,0,1.711-1.694l.191,3.979a9.091,9.091,0,0,1-1.347,1.312,10.02,10.02,0,0,1-1.729,1.112,10.569,10.569,0,0,1-1.972.764,7.621,7.621,0,0,1-2.041.287,1.676,1.676,0,0,1-.3-.035l-.634-.122q-.452-.086-1.294-.234t-2.285-.356v.313a28.627,28.627,0,0,1-.53,5.742,18.759,18.759,0,0,1-1.416,4.4A8.647,8.647,0,0,1,302.4,234.7a3.613,3.613,0,0,1-2.38.99,2.709,2.709,0,0,1-1.651-.487,3.4,3.4,0,0,1-1.051-1.311,6.88,6.88,0,0,1-.556-1.928,15.82,15.82,0,0,1-.165-2.337,6.635,6.635,0,0,1,.226-1.607,15.913,15.913,0,0,1,.608-1.876q.382-.982.86-2t.981-1.972q1.182-2.224,2.693-4.587.191-1.355.391-2.78t.5-2.762a18.439,18.439,0,0,1,.765-2.536,7.573,7.573,0,0,1,1.181-2.085,5.408,5.408,0,0,1,1.729-1.407,5.237,5.237,0,0,1,2.432-.521,6.628,6.628,0,0,1,1.981.286,4.177,4.177,0,0,1,1.616.93,4.422,4.422,0,0,1,1.095,1.659,6.835,6.835,0,0,1,.4,2.493,7.563,7.563,0,0,1-.348,2.285,7.247,7.247,0,0,1-1.086,2.111,9.457,9.457,0,0,1-1.876,1.885,13.159,13.159,0,0,1-2.7,1.573Zm-8.235,10.754a2.683,2.683,0,0,0,.061.452,2.882,2.882,0,0,0,.2.625,2.005,2.005,0,0,0,.365.556.729.729,0,0,0,.556.243.56.56,0,0,0,.486-.322,2.992,2.992,0,0,0,.313-.86,8.521,8.521,0,0,0,.174-1.216q.052-.678.087-1.39t.043-1.39q.009-.678.043-1.216.052-.938.078-1.589t.044-1.086q.017-.486.035-.817a11.548,11.548,0,0,0-.643,1.329q-.313.755-.59,1.572t-.5,1.633q-.226.817-.391,1.52t-.26,1.216A4.587,4.587,0,0,0,299.918,229.838Zm6.046-12.509a8.9,8.9,0,0,0,1.8-1.164,8.507,8.507,0,0,0,1.3-1.372,7.793,7.793,0,0,0,.895-1.512,10.03,10.03,0,0,0,.556-1.6,5.25,5.25,0,0,0,.113-.895,2.925,2.925,0,0,0-.1-.964,1.767,1.767,0,0,0-.452-.773,1.208,1.208,0,0,0-.895-.321,1.862,1.862,0,0,0-1.129.356,3.14,3.14,0,0,0-.843.964,6.146,6.146,0,0,0-.591,1.442,15.135,15.135,0,0,0-.382,1.789q-.148.956-.209,1.989T305.964,217.329Z" transform="translate(-235.045 -188.819)" fill="#302c42"/>
        <path id="Trazado_151" data-name="Trazado 151" d="M368.784,209.164a9.314,9.314,0,0,1,.756,2.128,9.413,9.413,0,0,1,.026,4.213,10.665,10.665,0,0,1-.651,2.015,9.817,9.817,0,0,1-1.043,1.824,7.432,7.432,0,0,1-1.408,1.477,6.659,6.659,0,0,1-1.729.99,5.469,5.469,0,0,1-2,.365,4.886,4.886,0,0,1-2.615-.669,5.561,5.561,0,0,1-1.781-1.746,7.733,7.733,0,0,1-1.016-2.432,11.847,11.847,0,0,1-.321-2.745,10.863,10.863,0,0,1,.573-3.57,8.612,8.612,0,0,1,1.642-2.884,7.592,7.592,0,0,1,2.615-1.928,8.3,8.3,0,0,1,3.475-.7,9.176,9.176,0,0,1,3.093.512,11.781,11.781,0,0,1,2.7,1.373,15.452,15.452,0,0,1,2.345,1.972,29.914,29.914,0,0,1,2.024,2.293l-.33,2.45a10.08,10.08,0,0,0-1.268-1.355q-.8-.73-1.694-1.425t-1.763-1.312q-.869-.617-1.494-1.034Zm-5.368,9.677a1.586,1.586,0,0,0,1.147-.6,5.679,5.679,0,0,0,.973-1.511,10.422,10.422,0,0,0,.669-2.015,9.5,9.5,0,0,0,.252-2.111,8.526,8.526,0,0,0-.122-1.485,4.581,4.581,0,0,0-.365-1.19,2.193,2.193,0,0,0-.625-.8,1.461,1.461,0,0,0-.921-.3,1.955,1.955,0,0,0-1.355.608,5.7,5.7,0,0,0-1.13,1.555,9.927,9.927,0,0,0-1.042,4.3,6.484,6.484,0,0,0,.139,1.373,3.527,3.527,0,0,0,.434,1.12,2.179,2.179,0,0,0,1.946,1.051Z" transform="translate(-277.26 -188.819)" fill="#302c42"/>
      </g>
      <g id="Grupo_360" data-name="Grupo 360" transform="translate(1.943 40.603)">
        <path id="Trazado_152" data-name="Trazado 152" d="M101.666,290.627l-.156.729a1.689,1.689,0,0,1,1.137-.418c.661,0,1.186.379,1.186,1.536,0,1.313-.505,3.432-2.392,3.432a.865.865,0,0,1-.827-.35l-.505,2.372-1.468.35,1.624-7.652Zm.836,1.818c0-.749-.311-.807-.486-.807a.87.87,0,0,0-.671.476l-.574,2.722a.359.359,0,0,0,.369.224C102.162,295.061,102.5,293.359,102.5,292.445Z" transform="translate(-98.642 -288.916)" fill="#302c42"/>
        <path id="Trazado_153" data-name="Trazado 153" d="M120.15,293.087a.226.226,0,0,0,.107.02,3.1,3.1,0,0,0,1.5-.583l.088.262a3.069,3.069,0,0,1-1.721.807c-.156,1.8-1.128,2.927-2.324,2.927a1.385,1.385,0,0,1-1.556-1.536c0-1.118.661-3.452,2.664-3.452C119.741,291.531,120.15,292.066,120.15,293.087Zm-.836.535c-.2-.049-.263-.214-.263-.409a.534.534,0,0,1,.3-.525c-.019-.408-.117-.564-.369-.564-.691,0-1.293,1.779-1.293,2.732,0,.642.126.787.5.787C118.662,295.644,119.158,294.769,119.313,293.622Z" transform="translate(-110.941 -289.547)" fill="#302c42"/>
        <path id="Trazado_154" data-name="Trazado 154" d="M134.326,293.087a.228.228,0,0,0,.107.02,3.1,3.1,0,0,0,1.5-.583l.088.262a3.069,3.069,0,0,1-1.721.807c-.156,1.8-1.128,2.927-2.324,2.927a1.385,1.385,0,0,1-1.556-1.536c0-1.118.661-3.452,2.664-3.452C133.918,291.531,134.326,292.066,134.326,293.087Zm-.836.535c-.2-.049-.263-.214-.263-.409a.534.534,0,0,1,.3-.525c-.019-.408-.117-.564-.369-.564-.69,0-1.293,1.779-1.293,2.732,0,.642.126.787.5.787C132.839,295.644,133.335,294.769,133.49,293.622Z" transform="translate(-120.849 -289.547)" fill="#302c42"/>
        <path id="Trazado_155" data-name="Trazado 155" d="M146.164,290.55a1.5,1.5,0,0,0-.039.282.347.347,0,0,0,.4.389.636.636,0,0,0,.311-.058,1.032,1.032,0,0,1-1.07,1.021c-.583,0-1.04-.36-1.04-1.186a3.173,3.173,0,0,1,.078-.632l1.04-4.871,1.439-.194Z" transform="translate(-130.848 -285.193)" fill="#302c42"/>
        <path id="Trazado_156" data-name="Trazado 156" d="M163.521,285.364l-1.118,5.251a1.346,1.346,0,0,0-.039.311c0,.272.126.36.4.36.379,0,.642-.369.787-.855h.408c-.554,1.585-1.429,1.74-1.954,1.74a.892.892,0,0,1-.953-.836,1.729,1.729,0,0,1-1.439.894c-.661,0-1.293-.408-1.293-1.565,0-1.312.807-3.4,2.5-3.4.554,0,.788.214.788.5v.039l.476-2.236Zm-2.479,5.066.476-2.227a.386.386,0,0,0-.4-.341c-.826,0-1.361,1.75-1.361,2.664,0,.749.311.758.486.758a.959.959,0,0,0,.8-.807Z" transform="translate(-140.348 -285.238)" fill="#302c42"/>
        <path id="Trazado_157" data-name="Trazado 157" d="M177.284,295.615a1.985,1.985,0,0,0,1.147-.515,1.563,1.563,0,0,1-1.682,1.439,1.362,1.362,0,0,1-1.507-1.546c0-1.118.632-3.461,2.625-3.461.865,0,1.07.447,1.07.934a2.248,2.248,0,0,1-2.236,2.051c-.01.1-.019.2-.019.292C176.681,295.42,176.943,295.615,177.284,295.615Zm.661-3.568c-.486,0-.972,1.079-1.177,2a1.614,1.614,0,0,0,1.42-1.6C178.188,292.2,178.13,292.046,177.945,292.046Z" transform="translate(-152.175 -289.547)" fill="#302c42"/>
        <path id="Trazado_158" data-name="Trazado 158" d="M194.607,290.627l-.156.729a1.69,1.69,0,0,1,1.138-.418c.661,0,1.186.379,1.186,1.536,0,1.313-.505,3.432-2.392,3.432a.865.865,0,0,1-.827-.35l-.506,2.372-1.468.35,1.624-7.652Zm.836,1.818c0-.749-.311-.807-.486-.807a.87.87,0,0,0-.671.476l-.574,2.722a.359.359,0,0,0,.37.224C195.1,295.061,195.443,293.359,195.443,292.445Z" transform="translate(-163.595 -288.916)" fill="#302c42"/>
        <path id="Trazado_159" data-name="Trazado 159" d="M213.091,293.087a.226.226,0,0,0,.107.02,3.1,3.1,0,0,0,1.5-.583l.088.262a3.069,3.069,0,0,1-1.721.807c-.156,1.8-1.128,2.927-2.324,2.927a1.385,1.385,0,0,1-1.556-1.536c0-1.118.661-3.452,2.664-3.452C212.682,291.531,213.091,292.066,213.091,293.087Zm-.836.535c-.2-.049-.263-.214-.263-.409a.534.534,0,0,1,.3-.525c-.019-.408-.117-.564-.37-.564-.69,0-1.293,1.779-1.293,2.732,0,.642.126.787.5.787C211.6,295.644,212.1,294.769,212.254,293.622Z" transform="translate(-175.895 -289.547)" fill="#302c42"/>
        <path id="Trazado_160" data-name="Trazado 160" d="M226.11,285.364l-1.118,5.251a1.346,1.346,0,0,0-.039.311c0,.272.126.36.4.36.379,0,.729-.369.875-.855h.408c-.554,1.585-1.517,1.8-2.042,1.8-.583,0-1.04-.35-1.04-1.167a3.171,3.171,0,0,1,.078-.632l1.04-4.871Z" transform="translate(-185.938 -285.238)" fill="#302c42"/>
        <path id="Trazado_161" data-name="Trazado 161" d="M234.314,287.015l-.7,3.306a1.346,1.346,0,0,0-.039.311c0,.272.126.36.4.36a.633.633,0,0,0,.311-.058,1.016,1.016,0,0,1-1.07,1c-.583,0-1.04-.35-1.04-1.167a3.175,3.175,0,0,1,.078-.632l.661-3.121Zm-.437-2.071a.78.78,0,0,1,.778.778.772.772,0,0,1-.778.768.764.764,0,0,1-.768-.768A.772.772,0,0,1,233.877,284.944Zm3.2,5.844a.494.494,0,0,1,.544-.418.414.414,0,0,1,.428.467,1.144,1.144,0,0,1-1.186,1.04h-2.576l2.479-4.337h-.544c-.3,0-.535.02-.535.156,0,.048.107-.01.107.214a.5.5,0,0,1-.525.515.423.423,0,0,1-.447-.428,1.118,1.118,0,0,1,1.128-.982h2.5l-2.382,4.113c.165.01.476.059.739.059.233,0,.428-.039.457-.195A.188.188,0,0,1,237.075,290.788Z" transform="translate(-191.964 -284.944)" fill="#302c42"/>
        <path id="Trazado_162" data-name="Trazado 162" d="M257.378,291.709l-.7,3.306a1.346,1.346,0,0,0-.039.311c0,.272.126.418.4.418.379,0,.642-.428.787-.914h.408c-.554,1.585-1.429,1.8-1.954,1.8a.893.893,0,0,1-.953-.894,1.759,1.759,0,0,1-1.449.894c-.661,0-1.293-.408-1.293-1.565,0-1.312.807-3.4,2.5-3.4.554,0,.787.214.787.5v.068l.107-.515Zm-3.355,3.218c0,.749.311.758.487.758a.978.978,0,0,0,.807-.855l.467-2.2a.378.378,0,0,0-.4-.37C254.559,292.263,254.024,294.013,254.024,294.927Z" transform="translate(-206.228 -289.638)" fill="#302c42"/>
        <path id="Trazado_163" data-name="Trazado 163" d="M272.108,290.821c.117,2.518.214,2.9.214,3.539a1.764,1.764,0,0,1-1.945,1.682,1.272,1.272,0,0,1-1.42-1.245,1,1,0,0,1,.515-.9,14.692,14.692,0,0,0,1.2-2.878Zm-2.372,3.9a.281.281,0,0,1-.263-.126c0,.457.165.68.593.68a.8.8,0,0,0,.846-.9c0-.506-.088-.807-.185-2.3a11.149,11.149,0,0,1-.787,1.838.367.367,0,0,1,.224.34A.462.462,0,0,1,269.736,294.72Z" transform="translate(-217.67 -289.051)" fill="#302c42"/>
      </g>
    </g>
  </g>
</svg>
