<svg xmlns="http://www.w3.org/2000/svg" xmlns:xlink="http://www.w3.org/1999/xlink" width="147" height="214" viewBox="0 0 147 214">
  <defs>
    <clipPath id="clip-path">
      <rect id="Rectángulo_711" data-name="Rectángulo 711" width="147" height="214" transform="translate(330 2508)" fill="#fff" stroke="#707070" stroke-width="1"/>
    </clipPath>
  </defs>
  <g id="Enmascarar_grupo_106" data-name="Enmascarar grupo 106" transform="translate(-330 -2508)" clip-path="url(#clip-path)">
    <g id="Grupo_761" data-name="Grupo 761" transform="translate(16249 -7123)">
      <path id="Trazado_367" data-name="Trazado 367" d="M-690.763,195.692l35.946,2.827,23.619,2.955-8.1,48.879-21.687,3.36-40.49,15.4,3.169-26.021Z" transform="translate(-15192.042 9459.808)" fill="#aaa9aa"/>
      <path id="Trazado_368" data-name="Trazado 368" d="M-568.8,457.916l-31.385-11.251-38.448-21.7-25.6-24.557-21.31-22.3-19.439-34.048-10.52-25.625V297.8l5.127-15.855,8.933-12.825,17.38-8.778,15.991-5.138,12.69-2.658,16.088-2.188,5.127-26.412,7.513,6,5.487,13.151-.727,17.243-4.76,11.71L-647.944,284.9l-26.631,10.092-17.815,14.659,24.312,1.782,6.112,11.552,18.444,23.585,27.215,22.844,28.7,15.335,22.366,6.3Z" transform="translate(-15192.042 9459.808)" fill="#41c6a8"/>
      <path id="Trazado_369" data-name="Trazado 369" d="M-702.316,220.985l10.043-.456,13.173-4.109,8.177-9.256,5.976-14.955,2.982,17.331-3.559,14.529-11.181,12.1-14.823,8.093-11.927-3.084-5.679-6.285,1.235-8.654Z" transform="translate(-15192.042 9459.808)" fill="#41c6a8"/>
      <path id="Trazado_370" data-name="Trazado 370" d="M-641.271,216.67a6.827,6.827,0,0,1-7.007,6.63,6.828,6.828,0,0,1-7.008-6.63,6.828,6.828,0,0,1,7.008-6.63A6.827,6.827,0,0,1-641.271,216.67Z" transform="translate(-15192.042 9459.808)" fill="#eaeaea"/>
      <path id="Trazado_371" data-name="Trazado 371" d="M-689.233,310.349l39.611,2.372,5.1-27.119-19.664,4.249-17.649,9.092-8.355,7.445-2.2,3.961Z" transform="translate(-15192.042 9459.808)" fill="#aaa9aa"/>
      <path id="Trazado_372" data-name="Trazado 372" d="M-636.553,240.251c4.759,2.542,5.78,9.411,3.332,14.219s-7.363,7.85-12.32,9.982c-15.616,6.717-34.528,7.253-46.825,18.989-11.243,10.731-13.5,28.462-9.119,43.375s14.319,27.519,24.812,38.985a355.507,355.507,0,0,0,105.651,78.761,33.828,33.828,0,0,1,3.417,10.93,3.07,3.07,0,0,1-.532,2.4c-.71.741-1.9.639-2.914.462a82.862,82.862,0,0,1-32.806-13.469c-26.352-18.266-54.669-35.76-75.988-59.709-18.715-21.023-30.748-48.631-38.01-75.825-3.382-12.665,3.408-27.29,12.383-36.845,4.962-5.283,11.675-8.55,18.4-11.255a165.015,165.015,0,0,1,37.512-10.147c3-.441,6.148-.849,8.636-2.584S-635,242.858-636.553,240.251Z" transform="translate(-15192.042 9459.808)" fill="#7cdec8"/>
      <path id="Trazado_373" data-name="Trazado 373" d="M-672.369,207.539a22.892,22.892,0,0,1-13.738,11.691c-4.462,1.353-9.267,1.305-13.7,2.758s-8.729,5.191-8.489,9.848c7.769-.234,15.629-.481,23.109-2.592s14.659-6.315,18.79-12.9a24.178,24.178,0,0,0,1.939-21.47C-669.014,197.144-670.132,202.964-672.369,207.539Z" transform="translate(-15192.042 9459.808)" fill="#7cdec8"/>
      <path id="Trazado_374" data-name="Trazado 374" d="M-632.012,224.069c13.93,11.646,15.53,35.218,3.3,48.64-8.954,9.827-22.614,13.444-35.184,17.774s-25.9,10.937-30.79,23.3" transform="translate(-15192.042 9459.808)" fill="none" stroke="#526163" stroke-miterlimit="10" stroke-width="0.918"/>
      <path id="Trazado_375" data-name="Trazado 375" d="M-639.294,250.352c-22.046,2.274-54.35,8.254-67.632,26-7.908,10.564-10.169,24.6-8.368,37.67s7.325,25.35,13.765,36.868a235.987,235.987,0,0,0,128.362,107.03" transform="translate(-15192.042 9459.808)" fill="none" stroke="#526163" stroke-miterlimit="10" stroke-width="0.918"/>
      <path id="Trazado_376" data-name="Trazado 376" d="M-668.077,312.2c19.2,37.9,58.44,69.278,103.544,80.013" transform="translate(-15192.042 9459.808)" fill="none" stroke="#526163" stroke-miterlimit="10" stroke-width="0.918"/>
      <path id="Trazado_377" data-name="Trazado 377" d="M-698.3,244.258c-.955,7.747-1.945,15.877-3.169,24.857" transform="translate(-15192.042 9459.808)" fill="none" stroke="#4b4b4b" stroke-miterlimit="10" stroke-width="0.765"/>
      <path id="Trazado_378" data-name="Trazado 378" d="M-690.763,195.692c-1.758,8.415-3.1,16.2-4.254,23.85" transform="translate(-15192.042 9459.808)" fill="none" stroke="#4b4b4b" stroke-miterlimit="10" stroke-width="0.765"/>
      <path id="Trazado_379" data-name="Trazado 379" d="M-689.233,195.692c15.933,0,34.768,3.674,58.035,5.781" transform="translate(-15192.042 9459.808)" fill="none" stroke="#4b4b4b" stroke-miterlimit="10" stroke-width="0.765"/>
      <path id="Trazado_380" data-name="Trazado 380" d="M-691.528,309.65c15.934,0,17.942.614,41.21,2.722" transform="translate(-15192.042 9459.808)" fill="none" stroke="#4b4b4b" stroke-miterlimit="10" stroke-width="0.765"/>
      <path id="Trazado_381" data-name="Trazado 381" d="M-631.2,201.473c-3.536,23.2-1.977,11.844-7.467,48.093" transform="translate(-15192.042 9459.808)" fill="none" stroke="#4b4b4b" stroke-miterlimit="10" stroke-width="0.765"/>
      <path id="Trazado_382" data-name="Trazado 382" d="M-644.2,283.309c-3.763,24.7-2.2,16.4-4.407,28.972" transform="translate(-15192.042 9459.808)" fill="none" stroke="#4b4b4b" stroke-miterlimit="10" stroke-width="0.765"/>
      <path id="Trazado_383" data-name="Trazado 383" d="M-667.111,190.038a29.159,29.159,0,0,1-7.913,21.837,29.162,29.162,0,0,1-21.462,8.881l-4.934-.121a11.523,11.523,0,0,0-7.453,8.247,11.526,11.526,0,0,0,3.215,10.641c4.294,4.107,11.1,4.2,16.828,2.625A37.2,37.2,0,0,0-664.98,221.5,37.2,37.2,0,0,0-666,189.977" transform="translate(-15192.042 9459.808)" fill="none" stroke="#526163" stroke-miterlimit="10" stroke-width="0.81"/>
      <path id="Trazado_384" data-name="Trazado 384" d="M-652.723,209.54a8.026,8.026,0,0,0-2.657,6.169,8.027,8.027,0,0,0,3.044,5.988,7.473,7.473,0,0,0,5.283,1.567,6.63,6.63,0,0,0,4.735-2.745c1.978-2.86,1.02-7.181-1.749-9.285a8.9,8.9,0,0,0-9.812-.2" transform="translate(-15192.042 9459.808)" fill="none" stroke="#4b4b4b" stroke-miterlimit="10" stroke-width="0.765"/>
      <path id="Trazado_385" data-name="Trazado 385" d="M-649.623,176.192q.378,4.589.754,9.178" transform="translate(-15192.042 9459.808)" fill="none" stroke="#4b4b4b" stroke-miterlimit="10" stroke-width="0.765"/>
      <path id="Trazado_386" data-name="Trazado 386" d="M-636.911,186.551q1.4-4.973,2.794-9.946" transform="translate(-15192.042 9459.808)" fill="none" stroke="#4b4b4b" stroke-miterlimit="10" stroke-width="0.765"/>
      <path id="Trazado_387" data-name="Trazado 387" d="M-626.653,191.268l6.134-7.381" transform="translate(-15192.042 9459.808)" fill="none" stroke="#4b4b4b" stroke-miterlimit="10" stroke-width="0.765"/>
      <path id="Trazado_388" data-name="Trazado 388" d="M-619.448,198.519l10.34-4.107" transform="translate(-15192.042 9459.808)" fill="none" stroke="#4b4b4b" stroke-miterlimit="10" stroke-width="0.765"/>
    </g>
  </g>
</svg>
