<svg xmlns="http://www.w3.org/2000/svg" xmlns:xlink="http://www.w3.org/1999/xlink" width="151" height="215" viewBox="0 0 151 215">
  <defs>
    <clipPath id="clip-path">
      <rect id="Rectángulo_712" data-name="Rectángulo 712" width="151" height="215" transform="translate(888 2508)" fill="#fff" stroke="#707070" stroke-width="1"/>
    </clipPath>
  </defs>
  <g id="Enmascarar_grupo_107" data-name="Enmascarar grupo 107" transform="translate(-888 -2508)" clip-path="url(#clip-path)">
    <g id="Grupo_756" data-name="Grupo 756" transform="translate(39 50)">
      <g id="Grupo_732" data-name="Grupo 732" transform="translate(884.427 3462.917) rotate(132)">
        <path id="Trazado_361" data-name="Trazado 361" d="M-550.32,495.435l-12.126,6.5-16.85,1.693-22.578-8.445-17.88-10.443L-644.514,473.3l-16.545-1.915-17.338,3.461-17.719,6.122-16.366,18.954-7.366,14.483-6.293,17.312-8.7,22.238-9.84,14.871-14.023,12.38-14.148,4.051-13.605,2.966-2.5,7.849,6.014,8.832,8.688,3.982,15.345-1.528,15.542-8.479,13.472-12.24,11.1-22.239,8.428-15.451,11.983-15.689L-686.288,524l11.683-4.316,17.519,1.489,15.109,8.161,15.306,10.8,14.517,7.423,18.163,3.864,12.978-.231,15.775-3.637,14.667-7.419,3.721,3.964,10.569.988L-534.5,520.1V494.353l-6.231-7h-5.864Z" fill="#41c6a8"/>
        <path id="Trazado_362" data-name="Trazado 362" d="M-532.38,494.923c-1.851-5.338-7.915-9.375-13.267-7.564-3.978,1.347-6.411,5.232-9.453,8.127-5.746,5.469-14.143,7.532-22.047,6.873s-15.408-3.777-22.394-7.534-13.6-8.183-20.676-11.772c-17.866-9.067-39.229-15.516-58.577-10.315a57.831,57.831,0,0,0-34.1,25.651c-9.047,14.974-10.924,33.528-20.5,48.169-10.565,16.154-21.124,34.917-39.855,39.576-3.028.753-6.154,1.245-8.994,2.538a8.189,8.189,0,0,0-3.942,3.9c-1.3,2.851-.254,2.985,2.569,3.155a47.193,47.193,0,0,0,14.348-1.417,58.86,58.86,0,0,0,24.981-13.674c9.023-8.221,15.646-18.731,20.578-29.821,6.512-14.645,10.4-30.635,19.636-43.954A52.55,52.55,0,0,1-664.128,484c8.451-.551,17.132,1,24.3,5.418,6.541,4.035,13.741,7.041,19.891,11.7s13.747,7.459,21.184,9.642c6.945,2.039,14.53,4.734,21.772,4.826,16.968.217,32.9-9.306,44.395-21.253" fill="#7cdec8"/>
        <path id="Trazado_366" data-name="Trazado 366" d="M-551.416,540.637c-20.513,13.621-48.7,14.67-70.166,2.614-14.92-8.378-27.6-22.768-44.66-24.049-16.735-1.257-31.675,10.983-41.045,24.9s-15.176,30.075-25.228,43.513-26.548,24.256-42.908,20.522c-6.574-1.5-13.555-6.16-13.535-13.635a8.816,8.816,0,0,1,2.92-6.67,10.121,10.121,0,0,1,5.314-2.138c2.961-.375,5.81-.044,8.771-.57a42.287,42.287,0,0,0,7.9-2.213,46.639,46.639,0,0,0,13.6-8.31c8.326-7.213,14.337-16.856,18.5-26.973,7.21-17.505,11-36.831,22.4-51.945,15.136-20.068,43.352-29.17,67.361-21.73,16.036,4.969,29.317,16.212,44.543,23.282s35.363,8.96,47.071-3.072" fill="none" stroke="#526163" stroke-miterlimit="10" stroke-width="0.994"/>
      </g>
      <g id="Elipse_80" data-name="Elipse 80" transform="matrix(0.819, -0.574, 0.574, 0.819, 888.782, 2668.656)" fill="#73ebd0" stroke="#526163" stroke-width="1">
        <ellipse cx="8.527" cy="4.264" rx="8.527" ry="4.264" stroke="none"/>
        <ellipse cx="8.527" cy="4.264" rx="8.027" ry="3.764" fill="none"/>
      </g>
      <g id="Elipse_83" data-name="Elipse 83" transform="translate(911.688 2654.83) rotate(-24)" fill="#73ebd0" stroke="#526163" stroke-width="1">
        <ellipse cx="10.527" cy="5.264" rx="10.527" ry="5.264" stroke="none"/>
        <ellipse cx="10.527" cy="5.264" rx="10.027" ry="4.764" fill="none"/>
      </g>
      <g id="Elipse_85" data-name="Elipse 85" transform="matrix(0.883, -0.469, 0.469, 0.883, 938.683, 2646.496)" fill="#73ebd0" stroke="#526163" stroke-width="1">
        <ellipse cx="8.527" cy="4.264" rx="8.527" ry="4.264" stroke="none"/>
        <ellipse cx="8.527" cy="4.264" rx="8.027" ry="3.764" fill="none"/>
      </g>
      <g id="Elipse_87" data-name="Elipse 87" transform="translate(960.257 2633.51) rotate(-60)" fill="#73ebd0" stroke="#526163" stroke-width="1">
        <ellipse cx="7.527" cy="3.764" rx="7.527" ry="3.764" stroke="none"/>
        <ellipse cx="7.527" cy="3.764" rx="7.027" ry="3.264" fill="none"/>
      </g>
      <g id="Elipse_89" data-name="Elipse 89" transform="translate(970.084 2612.017) rotate(-90)" fill="#73ebd0" stroke="#526163" stroke-width="1">
        <ellipse cx="6.527" cy="3.264" rx="6.527" ry="3.264" stroke="none"/>
        <ellipse cx="6.527" cy="3.264" rx="6.027" ry="2.764" fill="none"/>
      </g>
      <g id="Elipse_81" data-name="Elipse 81" transform="matrix(0.766, -0.643, 0.643, 0.766, 863.94, 2669.473)" fill="#73ebd0" stroke="#526163" stroke-width="1">
        <ellipse cx="8.527" cy="4.264" rx="8.527" ry="4.264" stroke="none"/>
        <ellipse cx="8.527" cy="4.264" rx="8.027" ry="3.764" fill="none"/>
      </g>
      <g id="Elipse_82" data-name="Elipse 82" transform="translate(886.696 2649.828) rotate(-30)" fill="#73ebd0" stroke="#526163" stroke-width="1">
        <ellipse cx="9.527" cy="4.764" rx="9.527" ry="4.764" stroke="none"/>
        <ellipse cx="9.527" cy="4.764" rx="9.027" ry="4.264" fill="none"/>
      </g>
      <g id="Elipse_84" data-name="Elipse 84" transform="matrix(0.946, -0.326, 0.326, 0.946, 912.088, 2637.947)" fill="#73ebd0" stroke="#526163" stroke-width="1">
        <ellipse cx="8.027" cy="3.764" rx="8.027" ry="3.764" stroke="none"/>
        <ellipse cx="8.027" cy="3.764" rx="7.527" ry="3.264" fill="none"/>
      </g>
      <g id="Elipse_86" data-name="Elipse 86" transform="translate(937.101 2630.955) rotate(-32)" fill="#73ebd0" stroke="#526163" stroke-width="1">
        <ellipse cx="8.027" cy="3.764" rx="8.027" ry="3.764" stroke="none"/>
        <ellipse cx="8.027" cy="3.764" rx="7.527" ry="3.264" fill="none"/>
      </g>
      <g id="Elipse_88" data-name="Elipse 88" transform="matrix(0.225, -0.974, 0.974, 0.225, 955.229, 2617.723)" fill="#73ebd0" stroke="#526163" stroke-width="1">
        <ellipse cx="6.527" cy="3.264" rx="6.527" ry="3.264" stroke="none"/>
        <ellipse cx="6.527" cy="3.264" rx="6.027" ry="2.764" fill="none"/>
      </g>
      <g id="Elipse_90" data-name="Elipse 90" transform="translate(960.058 2596.314) rotate(-85)" fill="#73ebd0" stroke="#526163" stroke-width="1">
        <ellipse cx="6.527" cy="3.264" rx="6.527" ry="3.264" stroke="none"/>
        <ellipse cx="6.527" cy="3.264" rx="6.027" ry="2.764" fill="none"/>
      </g>
    </g>
  </g>
</svg>
