<svg xmlns="http://www.w3.org/2000/svg" id="calendar" width="15.78" height="16.783" viewBox="0 0 15.78 16.783">
    <defs>
        <style>
            .cls-1{fill:#57e0c1}
        </style>
    </defs>
    <path id="Trazado_439" d="M13.972 58.052H1.808A1.87 1.87 0 0 1 0 56.129V44.591a1.87 1.87 0 0 1 1.808-1.923h12.164a1.87 1.87 0 0 1 1.808 1.923v11.538a1.87 1.87 0 0 1-1.808 1.923zM1.808 43.717a.85.85 0 0 0-.822.874v11.538a.85.85 0 0 0 .822.871h12.164a.85.85 0 0 0 .822-.874V44.591a.85.85 0 0 0-.822-.874zm0 0" class="cls-1" transform="translate(0 -41.269)"/>
    <path id="Trazado_440" d="M15.287 171.717H.493a.525.525 0 0 1 0-1.049h14.794a.525.525 0 0 1 0 1.049zm0 0" class="cls-1" transform="translate(0 -165.074)"/>
    <path id="Trazado_441" d="M107.192 4.2a.525.525 0 0 1-.524-.524V.524a.524.524 0 1 1 1.049 0v3.147a.525.525 0 0 1-.525.529zm0 0" class="cls-1" transform="translate(-103.171)"/>
    <path id="Trazado_442" d="M373.857 4.2a.525.525 0 0 1-.525-.524V.524a.524.524 0 0 1 1.049 0v3.147a.525.525 0 0 1-.524.529zm0 0" class="cls-1" transform="translate(-362.094)"/>
</svg>
