<svg id="Componente_6_1" data-name="Componente 6 – 1" xmlns="http://www.w3.org/2000/svg" width="75.031" height="75.031" viewBox="0 0 75.031 75.031">
  <circle id="Elipse_64" data-name="Elipse 64" cx="13.5" cy="13.5" r="13.5" transform="translate(34 0.031)" fill="#57e0c1"/>
  <g id="save" transform="translate(0)">
    <path id="Trazado_270" data-name="Trazado 270" d="M357.449,250.269a1.465,1.465,0,1,0,1.463,1.468A1.464,1.464,0,0,0,357.449,250.269Zm0,0" transform="translate(-303.813 -213.594)"/>
    <path id="Trazado_271" data-name="Trazado 271" d="M100.356,239.68h-.008a4.4,4.4,0,0,0-4.4,4.387,1.466,1.466,0,0,0,1.461,1.469h0a1.465,1.465,0,0,0,1.465-1.461,1.47,1.47,0,0,1,1.466-1.464h0a1.467,1.467,0,0,1,1.462,1.469,1.466,1.466,0,0,0,1.461,1.469h0a1.466,1.466,0,0,0,1.465-1.461A4.4,4.4,0,0,0,100.356,239.68Zm0,0" transform="translate(-81.888 -204.556)"/>
    <path id="Trazado_273" data-name="Trazado 273" d="M73.566,32.68A1.465,1.465,0,0,0,72.1,34.145c0,3.764-3.489,6.671-7,7.229a23.122,23.122,0,0,0-9.4-14.783,16.128,16.128,0,0,0-.845-21.829A16,16,0,0,0,43.466,0h-.039a16.151,16.151,0,0,0-16.12,16.1,15.988,15.988,0,0,0,.862,5.253,33.777,33.777,0,0,0-5.146,1.57c-2.323-3.368-8.1-5.4-11.84-5.406h0a1.466,1.466,0,0,0-1.42,1.827l2.705,10.647a24.3,24.3,0,0,0-4.276,7.082H4.4A4.321,4.321,0,0,0,0,41.388v5.858a4.3,4.3,0,0,0,4.364,4.339H8.159a24.735,24.735,0,0,0,7.375,9.96V73.566A1.466,1.466,0,0,0,17,75.031h5.785a4.491,4.491,0,0,0,4.473-4.424V67.2a35.759,35.759,0,0,0,8.718,1.091h.085a35.6,35.6,0,0,0,5.7-.454v2.812a4.427,4.427,0,0,0,4.458,4.385H52.17a1.465,1.465,0,0,0,1.465-1.465V63.648C60.86,59.306,65.324,52.03,65.341,44.471c0-.056,0-.113,0-.169,5.072-.692,9.692-4.909,9.692-10.157A1.465,1.465,0,0,0,73.566,32.68ZM43.428,2.931h.031a13.2,13.2,0,0,1-.033,26.4H43.4a13.2,13.2,0,0,1,.032-26.4Zm8.028,58.593A1.465,1.465,0,0,0,50.7,62.8v9.3H46.228A1.511,1.511,0,0,1,44.7,70.65v-7.51a1.465,1.465,0,1,0-2.931,0v1.72a32.68,32.68,0,0,1-5.7.5h-.078a32.739,32.739,0,0,1-8.725-1.194V62.326a1.465,1.465,0,0,0-2.931,0V70.6a1.564,1.564,0,0,1-1.547,1.5H18.465V60.824a1.466,1.466,0,0,0-.59-1.176,21.908,21.908,0,0,1-7.315-10.01,1.466,1.466,0,0,0-1.385-.985H4.368a1.389,1.389,0,0,1-1.437-1.4V41.391a1.392,1.392,0,0,1,1.458-1.384H9.2a1.466,1.466,0,0,0,1.382-.978,21.008,21.008,0,0,1,4.537-7.584,1.466,1.466,0,0,0,.38-1.393l-2.39-9.408c3.3.6,7.1,2.532,7.869,4.649a1.466,1.466,0,0,0,1.973.84,30.748,30.748,0,0,1,6.446-2.04,16.159,16.159,0,0,0,4.8,5.27A26.762,26.762,0,0,0,28.313,30.4a1.465,1.465,0,1,0,.832,2.81,24.083,24.083,0,0,1,6.844-.977h.073A22.434,22.434,0,0,1,48.616,35.92a1.465,1.465,0,1,0,1.674-2.406,21.291,21.291,0,0,0-2.973-1.722,16.027,16.027,0,0,0,6.255-3.12c5.49,3.861,8.853,9.823,8.839,15.793C62.394,51.223,58.2,57.76,51.456,61.524Zm0,0"/>
  </g>
  <g id="Grupo_571" data-name="Grupo 571" transform="translate(-139.549 -1508.709)">
    <g id="clock" transform="translate(192 1508.982)">
      <g id="Grupo_599" data-name="Grupo 599" transform="translate(-9.19 4.337)">
        <g id="Grupo_544" data-name="Grupo 544" transform="translate(0 0)">
          <rect id="Rectángulo_308" data-name="Rectángulo 308" width="1" height="1" transform="translate(-0.261 0.42)" stroke="#000" stroke-width="0.5"/>
        </g>
      </g>
      <g id="Grupo_600" data-name="Grupo 600" transform="translate(-9.19 25.797)">
        <g id="Grupo_546" data-name="Grupo 546" transform="translate(0 0)">
          <rect id="Rectángulo_309" data-name="Rectángulo 309" width="1" height="1" transform="translate(-0.261 -0.039)" stroke="#000" stroke-width="0.5"/>
        </g>
      </g>
      <g id="Grupo_601" data-name="Grupo 601" transform="translate(-14.804 6.491)">
        <g id="Grupo_548" data-name="Grupo 548" transform="translate(0 0)">
          <rect id="Rectángulo_310" data-name="Rectángulo 310" width="1.065" height="1.065" transform="translate(0 0.533) rotate(-30.009)" stroke="#000" stroke-width="0.5"/>
        </g>
      </g>
      <g id="Grupo_602" data-name="Grupo 602" transform="translate(-4.68 24.027)">
        <g id="Grupo_550" data-name="Grupo 550" transform="translate(0 0)">
          <rect id="Rectángulo_311" data-name="Rectángulo 311" width="1.065" height="1.065" transform="translate(0 0.533) rotate(-30.009)" stroke="#000" stroke-width="0.5"/>
        </g>
      </g>
      <g id="Grupo_603" data-name="Grupo 603" transform="translate(-18.51 10.197)">
        <g id="Grupo_552" data-name="Grupo 552" transform="translate(0 0)">
          <rect id="Rectángulo_312" data-name="Rectángulo 312" width="1.066" height="1.066" transform="matrix(0.5, -0.866, 0.866, 0.5, 0, 0.923)" stroke="#000" stroke-width="0.5"/>
        </g>
      </g>
      <g id="Grupo_604" data-name="Grupo 604" transform="translate(-0.973 20.325)">
        <g id="Grupo_554" data-name="Grupo 554" transform="translate(0 0)">
          <rect id="Rectángulo_313" data-name="Rectángulo 313" width="1.066" height="1.066" transform="matrix(0.5, -0.866, 0.866, 0.5, 0, 0.923)" stroke="#000" stroke-width="0.5"/>
        </g>
      </g>
      <g id="Grupo_605" data-name="Grupo 605" transform="translate(-19.42 15.567)">
        <g id="Grupo_556" data-name="Grupo 556" transform="translate(0 0)">
          <rect id="Rectángulo_314" data-name="Rectángulo 314" width="1" height="1" transform="translate(-0.031 0.19)" stroke="#000" stroke-width="0.5"/>
        </g>
      </g>
      <g id="Grupo_606" data-name="Grupo 606" transform="translate(1.039 15.567)">
        <g id="Grupo_558" data-name="Grupo 558" transform="translate(0 0)">
          <rect id="Rectángulo_315" data-name="Rectángulo 315" width="1" height="1" transform="translate(-0.49 0.19)" stroke="#000" stroke-width="0.5"/>
        </g>
      </g>
      <g id="Grupo_607" data-name="Grupo 607" transform="translate(-18.509 20.324)">
        <g id="Grupo_560" data-name="Grupo 560" transform="translate(0 0)">
          <rect id="Rectángulo_316" data-name="Rectángulo 316" width="1.066" height="1.066" transform="translate(0 0.533) rotate(-29.993)" stroke="#000" stroke-width="0.5"/>
        </g>
      </g>
      <g id="Grupo_608" data-name="Grupo 608" transform="translate(-0.973 10.197)">
        <g id="Grupo_562" data-name="Grupo 562" transform="translate(0)">
          <rect id="Rectángulo_317" data-name="Rectángulo 317" width="1.066" height="1.066" transform="matrix(0.866, -0.5, 0.5, 0.866, 0, 0.533)" stroke="#000" stroke-width="0.5"/>
        </g>
      </g>
      <g id="Grupo_609" data-name="Grupo 609" transform="translate(-14.806 24.029)">
        <g id="Grupo_564" data-name="Grupo 564" transform="translate(0 0)">
          <rect id="Rectángulo_318" data-name="Rectángulo 318" width="1.065" height="1.065" transform="translate(0 0.922) rotate(-59.991)" stroke="#000" stroke-width="0.5"/>
        </g>
      </g>
      <g id="Grupo_610" data-name="Grupo 610" transform="translate(-4.678 6.492)">
        <g id="Grupo_566" data-name="Grupo 566" transform="translate(0 0)">
          <rect id="Rectángulo_319" data-name="Rectángulo 319" width="1.065" height="1.065" transform="translate(0 0.922) rotate(-59.991)" stroke="#000" stroke-width="0.5"/>
        </g>
      </g>
      <g id="Grupo_611" data-name="Grupo 611" transform="translate(-14.615 7.461)">
        <g id="Grupo_568" data-name="Grupo 568">
          <path id="Trazado_276" data-name="Trazado 276" d="M160.951,112v8.226l-5.071,3.043.549.913,5.329-3.2a.533.533,0,0,0,.258-.457V112Z" transform="translate(-155.88 -112)" stroke="#000" stroke-width="0.5"/>
        </g>
      </g>
    </g>
  </g>
</svg>
