<svg id="Componente_7_1" data-name="Componente 7 – 1" xmlns="http://www.w3.org/2000/svg" width="64" height="53.561" viewBox="0 0 64 53.561">
  <rect id="Rectángulo_321" data-name="Rectángulo 321" width="9" height="17" transform="translate(37 35.061)" fill="#69e3c7"/>
  <circle id="Elipse_65" data-name="Elipse 65" cx="8.5" cy="8.5" r="8.5" transform="translate(47 2.061)" fill="#57e0c1"/>
  <g id="money" transform="translate(0 -34.019)">
    <g id="Grupo_573" data-name="Grupo 573" transform="translate(44.293 34.019)">
      <g id="Grupo_572" data-name="Grupo 572">
        <path id="Trazado_277" data-name="Trazado 277" d="M303.126,34.019a8.756,8.756,0,0,0,0,17.513,8.8,8.8,0,0,0,8.786-8.786A8.707,8.707,0,0,0,303.126,34.019Zm0,15.587a6.831,6.831,0,1,1,6.861-6.8A6.858,6.858,0,0,1,303.126,49.606Z" transform="translate(-294.4 -34.019)"/>
      </g>
    </g>
    <g id="Grupo_575" data-name="Grupo 575" transform="translate(50.191 37.088)">
      <g id="Grupo_574" data-name="Grupo 574">
        <path id="Trazado_278" data-name="Trazado 278" d="M339.2,61.46a1.573,1.573,0,0,0-.181-.481,1.508,1.508,0,0,0-.241-.421c-.12-.12-.181-.241-.3-.361a1.08,1.08,0,0,0-.421-.3,1.509,1.509,0,0,0-.421-.241c-.181-.06-.3-.181-.481-.241a4.148,4.148,0,0,1-.481-.181.456.456,0,0,1-.241-.12c-.06-.06-.181-.06-.241-.12s-.181-.06-.241-.12l-.181-.181a.313.313,0,0,1-.12-.241.362.362,0,0,1-.06-.241v-.3c0-.06.06-.181.06-.241.06-.06.06-.181.12-.241l.181-.181a.46.46,0,0,1,.3-.12.542.542,0,0,1,.3-.06h.361a.543.543,0,0,1,.3.06,2.606,2.606,0,0,1,.3.06c.06,0,.181.06.241.06.12,0,.181.06.241.06l.3.12.06-.361.12-.963v-.241l-.241-.06c-.06,0-.181-.06-.241-.06s-.12-.06-.241-.06a2.608,2.608,0,0,0-.3-.06c-.12,0-.181-.06-.3-.06h-.06V54.419h-1.444v1.2h-.06a2.138,2.138,0,0,0-.542.241,1.079,1.079,0,0,0-.421.3,2.617,2.617,0,0,0-.361.421,1.21,1.21,0,0,0-.241.481l-.181.542a2.047,2.047,0,0,0-.06.6,1.325,1.325,0,0,0,.06.481,1.573,1.573,0,0,0,.181.481c.06.12.181.3.241.421.12.12.181.241.3.361a1.079,1.079,0,0,0,.421.3,1.508,1.508,0,0,0,.421.241,3.572,3.572,0,0,1,.481.241,4.144,4.144,0,0,1,.481.181.456.456,0,0,1,.241.12c.06.06.181.06.241.12s.12.12.181.12l.181.181c.06.06.06.12.12.241a2.606,2.606,0,0,1,.06.3v.3a.456.456,0,0,1-.12.241l-.181.181a.83.83,0,0,1-.241.181c-.06.06-.181.06-.241.12a2.606,2.606,0,0,1-.3.06h-.782a2.606,2.606,0,0,1-.3-.06.855.855,0,0,1-.361-.12c-.12-.06-.241-.06-.361-.12-.06,0-.12-.06-.181-.06s-.12-.06-.181-.06l-.361-.181-.06.421-.12,1.083v.181l.181.06a.8.8,0,0,1,.542.06,1.116,1.116,0,0,0,.421.12c.12.06.3.06.481.12a1.325,1.325,0,0,0,.481.06h.12v1.2h1.444V64.529h.06a2.138,2.138,0,0,0,.542-.241,2.111,2.111,0,0,0,.481-.3,2.617,2.617,0,0,0,.361-.421,3.362,3.362,0,0,0,.3-.481l.181-.542a1.854,1.854,0,0,0,.06-.6A1.324,1.324,0,0,0,339.2,61.46Z" transform="translate(-333.6 -54.419)"/>
      </g>
    </g>
    <g id="Grupo_577" data-name="Grupo 577" transform="translate(10.304 52.306)">
      <g id="Grupo_576" data-name="Grupo 576" transform="translate(0 0)">
        <path id="Trazado_279" data-name="Trazado 279" d="M106.991,155.938a1.025,1.025,0,0,0-1.384-.181l-9.749,7.763L83.28,158.285a.96.96,0,0,0-.9.12L68.9,168.034a.962.962,0,0,0-.241,1.324.877.877,0,0,0,.782.421.971.971,0,0,0,.542-.181l13.059-9.328,12.638,5.236a1.083,1.083,0,0,0,.963-.12l10.171-8.064A1.025,1.025,0,0,0,106.991,155.938Z" transform="translate(-68.489 -155.569)"/>
      </g>
    </g>
    <g id="Grupo_579" data-name="Grupo 579" transform="translate(0 56.828)">
      <g id="Grupo_578" data-name="Grupo 578" transform="translate(0 0)">
        <path id="Trazado_280" data-name="Trazado 280" d="M62.889,214.446H58.436V186.582a.951.951,0,0,0-.963-.963H48.626a.951.951,0,0,0-.963.963v27.864h-3.25V196.211a.951.951,0,0,0-.963-.963H34.544a.951.951,0,0,0-.963.963v18.235h-3.25V194.767a.951.951,0,0,0-.963-.963H20.522a.951.951,0,0,0-.963.963v19.679h-3.25V200.424a.951.951,0,0,0-.963-.963H6.439a.951.951,0,0,0-.963.963v14.022H.963a.963.963,0,0,0,0,1.926H62.829a.951.951,0,0,0,.963-.963A.869.869,0,0,0,62.889,214.446Zm-48.566,0H7.4V201.386h6.921Zm14.082,0H21.485V195.729h6.921Zm14.022,0H35.507V197.174h6.921Zm14.082,0H49.589v-26.9H56.51Z" transform="translate(0 -185.619)"/>
      </g>
    </g>
  </g>
</svg>
