<svg id="Componente_9_1" data-name="Componente 9 – 1" xmlns="http://www.w3.org/2000/svg" width="50" height="54.615" viewBox="0 0 50 54.615">
  <circle id="Elipse_68" data-name="Elipse 68" cx="6.5" cy="6.5" r="6.5" transform="translate(11 25)" fill="#57e0c1"/>
  <g id="selfie" transform="translate(-21.492)">
    <path id="Trazado_262" data-name="Trazado 262" d="M41.229,44.038H30.677a2.713,2.713,0,0,1-2.709-2.709V38.362a3.206,3.206,0,0,0,.728.086,3.249,3.249,0,0,0,.883-.122v3a1.1,1.1,0,0,0,1.1,1.1h10.34a.805.805,0,1,0,0-1.61H31.188V37.275l.016-.019a3.224,3.224,0,0,0-.257-4.346,3.225,3.225,0,0,0,1.108-5.331,3.225,3.225,0,0,0,.895-5.522l-1.762-1.431V12.57a.805.805,0,0,0-1.61,0v6.753a3.2,3.2,0,0,0-1.61-.623V4.32a2.713,2.713,0,0,1,2.71-2.709H48.6A2.713,2.713,0,0,1,51.305,4.32V19.177a.805.805,0,1,0,1.61,0V4.32A4.325,4.325,0,0,0,48.6,0H30.677a4.325,4.325,0,0,0-4.32,4.32V10.5a3.225,3.225,0,0,0-3.673,5.281l3.673,2.983v.2a3.225,3.225,0,0,0-.95,5.267A3.226,3.226,0,0,0,24.3,29.555a3.224,3.224,0,0,0-.9,5.52l2.953,2.4v3.856a4.325,4.325,0,0,0,4.32,4.32H41.229a.805.805,0,1,0,0-1.61ZM23.7,14.527a1.615,1.615,0,1,1,2.036-2.507l.622.505v4.16Zm2.7,6.365a1.6,1.6,0,0,1,1.087-.588,1.637,1.637,0,0,1,.17-.009,1.6,1.6,0,0,1,1.015.361l3.264,2.65a1.614,1.614,0,0,1-1.993,2.538l-3.306-2.682a1.614,1.614,0,0,1-.236-2.271Zm-1.108,5.331a1.611,1.611,0,0,1,2.229-.267l3.306,2.682a1.614,1.614,0,0,1-1.992,2.539l-3.308-2.683A1.616,1.616,0,0,1,25.292,26.223Zm-1.108,5.331a1.613,1.613,0,0,1,2.223-.272l3.312,2.687a1.615,1.615,0,1,1-2.036,2.507l-3.264-2.65a1.616,1.616,0,0,1-.235-2.271Z" transform="translate(0)"/>
    <path id="Trazado_263" data-name="Trazado 263" d="M116.124,43.589a.805.805,0,0,0,.805-.805V31.1a1.1,1.1,0,0,0-1.1-1.1h-2.149a2.011,2.011,0,0,0-1.708.931,2.056,2.056,0,0,1-1.743.958h-6.651a2.057,2.057,0,0,1-1.743-.958A2.011,2.011,0,0,0,100.128,30H97.911a1.1,1.1,0,0,0-1.1,1.1v4.818a.805.805,0,1,0,1.61,0V31.61h1.705a.414.414,0,0,1,.349.184,3.659,3.659,0,0,0,3.1,1.7h6.651a3.659,3.659,0,0,0,3.1-1.7.414.414,0,0,1,.349-.185h1.638V42.784A.805.805,0,0,0,116.124,43.589Z" transform="translate(-67.234 -26.779)"/>
    <path id="Trazado_264" data-name="Trazado 264" d="M254.792,201.136l-9.8-11.529a1.14,1.14,0,0,1-.271-.738v-4.145a11.3,11.3,0,0,0-3.088-7.78l-10.064-10.678a2.031,2.031,0,0,0-3.008.058l-.2.229a5.333,5.333,0,0,0-.186,6.773l3.731,4.785a.958.958,0,0,1,.077,1.066l-.908,1.593a.805.805,0,0,0,1.4.8l.908-1.593a2.563,2.563,0,0,0-.206-2.854l-3.731-4.785a3.72,3.72,0,0,1,.13-4.725l.2-.229a.417.417,0,0,1,.309-.144.411.411,0,0,1,.314.132l10.064,10.678a9.7,9.7,0,0,1,2.65,6.675v4.145a2.752,2.752,0,0,0,.655,1.78l9.8,11.529a.805.805,0,1,0,1.227-1.043Z" transform="translate(-183.492 -147.848)"/>
    <path id="Trazado_265" data-name="Trazado 265" d="M233.7,346.216a.806.806,0,0,0-.511-.305,6.907,6.907,0,0,1-5.634-5.4l-.3-1.445a6.867,6.867,0,0,1,.761-4.784l1.376-2.414a.805.805,0,0,0-1.4-.8l-1.376,2.414a8.476,8.476,0,0,0-.94,5.906l.3,1.445a8.529,8.529,0,0,0,6.633,6.608l1.551,2.023a.805.805,0,0,0,1.278-.98Z" transform="translate(-182.112 -295.166)"/>
    <path id="Trazado_269" data-name="Trazado 269" d="M156.518,274.915a3.745,3.745,0,1,0,3.745,3.745A3.749,3.749,0,0,0,156.518,274.915Zm0,5.88a2.135,2.135,0,1,1,2.135-2.135A2.137,2.137,0,0,1,156.518,280.795Z" transform="translate(-117.187 -245.402)"/>
  </g>
</svg>
