<svg id="Componente_3_1" data-name="Componente 3 – 1" xmlns="http://www.w3.org/2000/svg" width="80" height="93.545" viewBox="0 0 80 93.545">
  <g id="Rectángulo_328" data-name="Rectángulo 328" transform="translate(30)" fill="#57e0c1" stroke="#57e0c1" stroke-width="1">
    <rect width="29" height="57" rx="5" stroke="none"/>
    <rect x="0.5" y="0.5" width="28" height="56" rx="4.5" fill="none"/>
  </g>
  <g id="Grupo_656" data-name="Grupo 656" transform="translate(-532 -825.806)">
    <g id="Rectángulo_326" data-name="Rectángulo 326" transform="translate(586 839.806)" fill="#fff" stroke="#000" stroke-width="3">
      <rect width="26" height="50" rx="7" stroke="none"/>
      <rect x="1.5" y="1.5" width="23" height="47" rx="5.5" fill="none"/>
    </g>
    <g id="Rectángulo_327" data-name="Rectángulo 327" transform="translate(532 839.806)" fill="#fff" stroke="#000" stroke-width="3">
      <rect width="26" height="50" rx="7" stroke="none"/>
      <rect x="1.5" y="1.5" width="23" height="47" rx="5.5" fill="none"/>
    </g>
    <g id="Rectángulo_325" data-name="Rectángulo 325" transform="translate(555 829.806)" fill="none" stroke="#000" stroke-width="3">
      <rect width="33" height="60" rx="7" stroke="none"/>
      <rect x="1.5" y="1.5" width="30" height="57" rx="5.5" fill="none"/>
    </g>
    <g id="Grupo_654" data-name="Grupo 654" transform="translate(556.467 866.188)">
      <path id="Trazado_316" data-name="Trazado 316" d="M-12714.376,8294.49v-7.761a9.527,9.527,0,0,0-3.182-1.548,30.344,30.344,0,0,0-3.582,0l-1.067,2.607-.765,6.7v9.268l1.832,7.309h3.582l3.182-8.828Z" transform="translate(12732.464 -8275.803)" fill="#fff"/>
      <g id="hand" transform="translate(0)">
        <g id="Grupo_652" data-name="Grupo 652">
          <g id="Grupo_637" data-name="Grupo 637" transform="translate(0 7.247)">
            <g id="Grupo_636" data-name="Grupo 636">
              <path id="Trazado_307" data-name="Trazado 307" d="M57.631,63.207a1.224,1.224,0,0,1-.614-.165l-3.141-1.814a1.23,1.23,0,1,1,1.23-2.13l3.142,1.814a1.23,1.23,0,0,1-.616,2.295Z" transform="translate(-53.26 -58.933)"/>
            </g>
          </g>
          <g id="Grupo_639" data-name="Grupo 639" transform="translate(5.306 1.942)">
            <g id="Grupo_638" data-name="Grupo 638">
              <path id="Trazado_308" data-name="Trazado 308" d="M99.448,21.392a1.229,1.229,0,0,1-1.066-.615l-1.814-3.141a1.23,1.23,0,1,1,2.13-1.23l1.814,3.141a1.23,1.23,0,0,1-1.064,1.845Z" transform="translate(-96.403 -15.79)"/>
            </g>
          </g>
          <g id="Grupo_641" data-name="Grupo 641" transform="translate(12.553)">
            <g id="Grupo_640" data-name="Grupo 640" transform="translate(0)">
              <path id="Trazado_309" data-name="Trazado 309" d="M156.57,6.087a1.23,1.23,0,0,1-1.23-1.23V1.23a1.23,1.23,0,0,1,2.46,0V4.857A1.23,1.23,0,0,1,156.57,6.087Z" transform="translate(-155.34 0)"/>
            </g>
          </g>
          <g id="Grupo_643" data-name="Grupo 643" transform="translate(17.987 1.942)">
            <g id="Grupo_642" data-name="Grupo 642">
              <path id="Trazado_310" data-name="Trazado 310" d="M200.752,21.392a1.23,1.23,0,0,1-1.064-1.845l1.814-3.142a1.23,1.23,0,1,1,2.13,1.23l-1.814,3.142A1.229,1.229,0,0,1,200.752,21.392Z" transform="translate(-199.523 -15.791)"/>
            </g>
          </g>
          <g id="Grupo_645" data-name="Grupo 645" transform="translate(21.965 7.247)">
            <g id="Grupo_644" data-name="Grupo 644">
              <path id="Trazado_311" data-name="Trazado 311" d="M233.1,63.207a1.23,1.23,0,0,1-.616-2.295l3.141-1.814a1.23,1.23,0,1,1,1.23,2.13l-3.141,1.814A1.225,1.225,0,0,1,233.1,63.207Z" transform="translate(-231.87 -58.933)"/>
            </g>
          </g>
          <g id="Grupo_647" data-name="Grupo 647" transform="translate(0 7.247)">
            <g id="Grupo_646" data-name="Grupo 646">
              <path id="Trazado_312" data-name="Trazado 312" d="M57.631,63.207a1.224,1.224,0,0,1-.614-.165l-3.141-1.814a1.23,1.23,0,1,1,1.23-2.13l3.142,1.814a1.23,1.23,0,0,1-.616,2.295Z" transform="translate(-53.26 -58.933)"/>
            </g>
          </g>
          <g id="Grupo_649" data-name="Grupo 649" transform="translate(5.306 1.942)">
            <g id="Grupo_648" data-name="Grupo 648">
              <path id="Trazado_313" data-name="Trazado 313" d="M99.448,21.392a1.229,1.229,0,0,1-1.066-.615l-1.814-3.141a1.23,1.23,0,1,1,2.13-1.23l1.814,3.141a1.23,1.23,0,0,1-1.064,1.845Z" transform="translate(-96.403 -15.79)"/>
            </g>
          </g>
          <g id="Grupo_651" data-name="Grupo 651" transform="translate(12.553)">
            <g id="Grupo_650" data-name="Grupo 650" transform="translate(0)">
              <path id="Trazado_314" data-name="Trazado 314" d="M156.57,6.087a1.23,1.23,0,0,1-1.23-1.23V1.23a1.23,1.23,0,0,1,2.46,0V4.857A1.23,1.23,0,0,1,156.57,6.087Z" transform="translate(-155.34 0)"/>
            </g>
          </g>
        </g>
        <g id="Grupo_653" data-name="Grupo 653" transform="translate(4.413 7.856)">
          <path id="Trazado_315" data-name="Trazado 315" d="M98.5,66.344a2.888,2.888,0,0,1,2.982,2.606c0,.006-.008,11.051-.009,13.768,0,.006,0,.011,0,.017V83.3a.49.49,0,1,0,.98,0v-.147a3.009,3.009,0,0,1,6.018.05l0,2.179a.483.483,0,1,0,.965,0v-.125a2.82,2.82,0,0,1,2.983-2.569,3,3,0,0,1,3,3.009l.006,2.206a.47.47,0,1,0,.939,0l0-.168c0-1.376,1.489-2.431,2.954-2.431a3.01,3.01,0,0,1,3.009,3.009l.01,5.529c0,5.142-2,12.887-14.311,12.887-14.672,0-16.628-7.437-16.4-15.451A3.17,3.17,0,0,1,94.7,88.205V91.75c0,.446.309.5.4.5s.391-.051.391-.5v-22.4a3.01,3.01,0,0,1,3.009-3.01m0-2.46a5.475,5.475,0,0,0-5.469,5.469V86.025a5.6,5.6,0,0,0-3.866,5.186c-.117,4.151.223,9.4,3.922,13.207,3.122,3.212,8.009,4.773,14.939,4.773,6.233,0,10.843-1.833,13.7-5.449a15.75,15.75,0,0,0,3.069-9.9l-.01-5.533a5.474,5.474,0,0,0-5.469-5.465,5.792,5.792,0,0,0-2.03.377,5.468,5.468,0,0,0-4.87-2.993,5.8,5.8,0,0,0-2.133.4,5.479,5.479,0,0,0-6.35-2.683c0-.51,0-1.033,0-1.558l0-5.1c0-1.388,0-2.022,0-2.346h.006A5.334,5.334,0,0,0,98.5,63.884Z" transform="translate(-89.145 -63.884)"/>
        </g>
      </g>
    </g>
  </g>
</svg>
