<svg xmlns="http://www.w3.org/2000/svg" width="86.053" height="64.385" viewBox="0 0 86.053 64.385">
  <g id="Grupo_1214" data-name="Grupo 1214" transform="translate(-786 -755.92)">
    <g id="Componente_2_1" data-name="Componente 2 – 1" transform="translate(786 755.92)">
      <rect id="Rectángulo_335" data-name="Rectángulo 335" width="66.377" height="43.56" rx="6" transform="translate(23.679 0) rotate(20)" fill="#57e0c1"/>
      <path id="Trazado_334" data-name="Trazado 334" d="M-11313.814,7621.337h58.77l1.641,2.958V7657.7l-1.641,2.462h-58.77l-2.026-2.462v-35.125Z" transform="translate(11317.043 -7597.051)" fill="#fff"/>
      <g id="credit-card" transform="translate(0 5.933)">
        <g id="Grupo_669" data-name="Grupo 669" transform="translate(7.79 24.712)">
          <g id="Grupo_668" data-name="Grupo 668">
            <rect id="Rectángulo_329" data-name="Rectángulo 329" width="12.967" height="2.597"/>
          </g>
        </g>
        <g id="Grupo_671" data-name="Grupo 671" transform="translate(7.79 32.502)">
          <g id="Grupo_670" data-name="Grupo 670" transform="translate(0 0)">
            <rect id="Rectángulo_330" data-name="Rectángulo 330" width="19.459" height="2.597"/>
          </g>
        </g>
        <g id="Grupo_673" data-name="Grupo 673" transform="translate(7.79 40.292)">
          <g id="Grupo_672" data-name="Grupo 672">
            <rect id="Rectángulo_331" data-name="Rectángulo 331" width="46.708" height="2.597"/>
          </g>
        </g>
        <g id="Grupo_675" data-name="Grupo 675" transform="translate(7.79 48.066)">
          <g id="Grupo_674" data-name="Grupo 674" transform="translate(0 0)">
            <rect id="Rectángulo_332" data-name="Rectángulo 332" width="7.79" height="2.597"/>
          </g>
        </g>
        <g id="Grupo_677" data-name="Grupo 677" transform="translate(20.757 48.066)">
          <g id="Grupo_676" data-name="Grupo 676" transform="translate(0 0)">
            <rect id="Rectángulo_333" data-name="Rectángulo 333" width="7.79" height="2.597"/>
          </g>
        </g>
        <g id="Grupo_679" data-name="Grupo 679" transform="translate(33.74 48.066)">
          <g id="Grupo_678" data-name="Grupo 678" transform="translate(0 0)">
            <rect id="Rectángulo_334" data-name="Rectángulo 334" width="7.79" height="2.597"/>
          </g>
        </g>
        <g id="Grupo_683" data-name="Grupo 683" transform="translate(0 0)">
          <g id="Grupo_682" data-name="Grupo 682" transform="translate(0 0)">
            <path id="Trazado_333" data-name="Trazado 333" d="M77.725,86.821,23.291,69.627c-.38-.127-3.42-1.124-4.877,2.533L13.933,86.331H3.895A3.913,3.913,0,0,0,0,90.225v33.74a3.892,3.892,0,0,0,3.895,3.895H60.989a3.868,3.868,0,0,0,3.246-1.757,18.182,18.182,0,0,0,2.153.491,3.857,3.857,0,0,0,3.7-2.723L80.258,91.7C80.575,90.716,80.8,87.645,77.725,86.821Zm-58.409-8.93,26.742,8.439H28.816l-11.067-3.5Zm-2.343,7.426,3.246,1.029H16.656Zm45.315,38.649h-.016a1.3,1.3,0,0,1-1.3,1.3H3.895a1.3,1.3,0,0,1-1.3-1.3V90.225a1.3,1.3,0,0,1,1.3-1.3H60.989a1.3,1.3,0,0,1,1.3,1.3v33.74Zm5.336-.871a1.31,1.31,0,0,1-1.631.839l-1.124-.348V100.454l9.009,2.85Zm7.03-22.277L64.868,97.73V92.284l11.352,3.578Zm3.135-9.9-.776,2.47L64.805,89.545a3.89,3.89,0,0,0-3.816-3.2H54.672L20.092,75.421l.776-2.47a1.3,1.3,0,0,1,1.631-.839L76.933,89.291A1.224,1.224,0,0,1,77.788,90.922Z" transform="translate(0 -69.408)"/>
          </g>
        </g>
        <g id="Elipse_70" data-name="Elipse 70" transform="translate(51 22.147)" fill="#57e0c1" stroke="#57e0c1" stroke-width="1">
          <circle cx="4.5" cy="4.5" r="4.5" stroke="none"/>
          <circle cx="4.5" cy="4.5" r="4" fill="none"/>
        </g>
        <g id="Grupo_681" data-name="Grupo 681" transform="translate(42.813 23.414)">
          <g id="Grupo_680" data-name="Grupo 680" transform="translate(0 0)">
            <path id="Trazado_332" data-name="Trazado 332" d="M280.787,217.288a5.088,5.088,0,0,0-2.581.712,5.193,5.193,0,1,0,0,8.962,5.088,5.088,0,0,0,2.581.712,5.193,5.193,0,0,0,0-10.387Zm-4.528,7.695a2.41,2.41,0,0,1-.665.095,2.6,2.6,0,1,1,0-5.193,3.063,3.063,0,0,1,.665.1,5.038,5.038,0,0,0,0,5Zm4.528.095a2.6,2.6,0,1,1,2.6-2.6A2.608,2.608,0,0,1,280.787,225.078Z" transform="translate(-270.4 -217.288)"/>
          </g>
        </g>
      </g>
    </g>
  </g>
</svg>
