<svg id="Componente_1_1" data-name="Componente 1 – 1" xmlns="http://www.w3.org/2000/svg" width="104.708" height="85.225" viewBox="0 0 104.708 85.225">
  <g id="Grupo_1213" data-name="Grupo 1213" transform="translate(-1052 -751)">
    <g id="Grupo_1212" data-name="Grupo 1212">
      <path id="Trazado_341" data-name="Trazado 341" d="M-10996.827,7589.534a19.269,19.269,0,0,0-4.921,1.173c-1.905.869-1.9,1.281-2.294,1.928a6.017,6.017,0,0,0,0,3.54c.32.617,2.339.862,2.294.891s-.239-4.1,2.979-3.9,3.256,3.9,3.256,3.9h17.477s.862-4.344,3.973-3.9,3.324,3.9,3.324,3.9,2.921-.875,3.391-1.622,0-5.516,0-5.516-.261-.7-2.071-.819-4.07-2.017-4.644-1.607-.506,1.06-1.822,1.607S-10996.827,7589.534-10996.827,7589.534Z" transform="translate(12097 -6815)" fill="#57e0c1"/>
      <rect id="Rectángulo_337" data-name="Rectángulo 337" width="10" height="10" rx="2" transform="translate(1096 797)" fill="#57e0c1"/>
      <rect id="Rectángulo_338" data-name="Rectángulo 338" width="10" height="10" rx="2" transform="translate(1096 814)" fill="#57e0c1"/>
      <path id="Trazado_340" data-name="Trazado 340" d="M-10957.21,7617.69s13.03,5.25,13.585,6.012.317,14.847,0,16.236-11.648,10.461-12.459,10.772a2.879,2.879,0,0,0-1.126.686s.152,1.1-1.744-.686-10.327-10.73-10.961-11.293a8.171,8.171,0,0,1-1.312-2.257v-12.916l1.312-1.113Z" transform="translate(12100 -6819)" fill="#57e0c1"/>
      <g id="Grupo_685" data-name="Grupo 685" transform="translate(11676 -6832)">
        <g id="surface1" transform="translate(-10585.241 7599.849)">
          <path id="Trazado_165" data-name="Trazado 165" d="M240,86.891h2.578V88.18H240Zm0,0" transform="translate(-223.884 -81.089)" stroke="#000" stroke-width="0.5"/>
          <path id="Trazado_166" data-name="Trazado 166" d="M38.125,4.366l-4.379-.625a22.093,22.093,0,0,0-2.481-1.315A21.708,21.708,0,0,0,22.283.492h-.761A21.912,21.912,0,0,0,11.06,3.16L8.85,4.366a15.232,15.232,0,0,0-7.371,2A2.943,2.943,0,0,0,0,8.912V12.74a.645.645,0,0,0,.645.645H2.809a3.854,3.854,0,0,0,7.273,0H27.305a3.854,3.854,0,0,0,7.273,0h.231a.647.647,0,0,0,.24-.046l2.088-.838a2.438,2.438,0,0,0,1.54-2.275V5A.645.645,0,0,0,38.125,4.366ZM8.973,12.611a2.579,2.579,0,1,1,.052-.516A2.578,2.578,0,0,1,8.973,12.611ZM20.628,12.1H10.314a3.868,3.868,0,1,0-7.736,0H1.289V8.912a1.649,1.649,0,0,1,.83-1.429A13.937,13.937,0,0,1,9.025,5.649h11.6Zm0-7.736H11.553l.124-.068A20.612,20.612,0,0,1,20.628,1.81Zm1.289-2.579h.365a20.4,20.4,0,0,1,7.585,1.453L28.742,4.36H21.917Zm11.551,10.83a2.579,2.579,0,1,1,.052-.516A2.579,2.579,0,0,1,33.468,12.611Zm3.92-6.318H35.455V7.583h1.934v2.643a1.154,1.154,0,0,1-.73,1.077l-1.849.743c0-.059-.008-.118-.012-.177s-.005-.129-.012-.193-.019-.129-.03-.193-.018-.129-.031-.188-.032-.124-.049-.185-.03-.123-.049-.183-.042-.117-.064-.176-.042-.119-.065-.177-.053-.111-.08-.166-.054-.115-.084-.17-.065-.1-.094-.154-.064-.11-.1-.163-.071-.095-.106-.142-.076-.1-.117-.153-.08-.088-.12-.129-.084-.1-.129-.14-.088-.081-.133-.121-.092-.087-.141-.129-.1-.074-.147-.111-.1-.076-.15-.11-.11-.064-.165-.1-.1-.065-.153-.092-.117-.057-.177-.085-.106-.054-.161-.077-.129-.048-.193-.071-.106-.041-.161-.059c-.073-.023-.149-.039-.224-.057-.049-.012-.1-.027-.146-.037-.079-.016-.161-.025-.241-.037-.048-.006-.093-.017-.141-.021a3.929,3.929,0,0,0-.393-.02,3.872,3.872,0,0,0-3.868,3.868H21.918V5.649h7.091a.644.644,0,0,0,.456-.189l1.672-1.672a20.671,20.671,0,0,1,2.044,1.118.647.647,0,0,0,.25.092l3.959.565Zm0,0" transform="translate(0 -0.492)" stroke="#000" stroke-width="0.5"/>
        </g>
        <g id="Car_insurance" data-name="Car insurance" transform="translate(-10609 7583)">
          <path id="Trazado_336" data-name="Trazado 336" d="M31.625,37.376a1.379,1.379,0,0,0-.682-.2H22.42A1.42,1.42,0,0,0,21,38.6V47.12a1.42,1.42,0,0,0,1.42,1.42h8.522a1.42,1.42,0,0,0,1.42-1.42V40.373l6.534-4.9-1.7-2.273Zm-2.1,8.324H23.841V40.018H28.1l-2.273,1.7L27.534,44,29.522,42.5Z" transform="translate(3.988 11.117)"/>
          <path id="Trazado_337" data-name="Trazado 337" d="M37.193,45.2l-5.568,4.176a1.379,1.379,0,0,0-.682-.2H22.42A1.42,1.42,0,0,0,21,50.6V59.12a1.42,1.42,0,0,0,1.42,1.42h8.522a1.42,1.42,0,0,0,1.42-1.42V52.373l6.534-4.9Zm-7.67,12.5H23.841V52.018H28.1l-2.273,1.7L27.534,56,29.522,54.5Z" transform="translate(3.988 16.162)"/>
          <path id="Trazado_338" data-name="Trazado 338" d="M71.6,32.4V6.261A4.261,4.261,0,0,0,67.339,2H21.886a4.261,4.261,0,0,0-4.261,4.261V37.51h-7.1a1.437,1.437,0,0,0-.528.1l-7.1,2.841A1.42,1.42,0,0,0,2,41.771V61.657a1.42,1.42,0,0,0,.635,1.183L6.91,65.681a1.42,1.42,0,0,0,.785.237h9.929V82.963a4.261,4.261,0,0,0,4.261,4.261H67.339A4.246,4.246,0,0,0,70.748,85.5L72,86.791a1.42,1.42,0,0,0,2.043,0l9.856-10.2a10.772,10.772,0,0,0,3.325-7.834V60.237a1.42,1.42,0,0,0-.844-1.3L73.6,53.257a1.42,1.42,0,0,0-1.153,0l-.844.375V32.4ZM8.125,63.078,4.841,60.9V42.733L10.8,40.351H27.567a2.841,2.841,0,0,1,0,5.682H14.784a1.42,1.42,0,0,0-1.42,1.42A4.261,4.261,0,0,1,9.1,51.714v2.841a7.113,7.113,0,0,0,6.96-5.682h1.562v14.2Zm64.9-6.969L84.384,61.16v7.6A8.039,8.039,0,0,1,81.871,74.6L73.021,83.76,64.17,74.6l-.017-.017a8.022,8.022,0,0,1-2.5-5.825v-7.6Zm-4.261-1.214-9.1,4.044a1.42,1.42,0,0,0-.844,1.3v8.522a10.767,10.767,0,0,0,3.318,7.824l6.545,6.774a1.4,1.4,0,0,1-1.341,1.027H21.886a1.42,1.42,0,0,1-1.42-1.42V48.874h7.1a5.682,5.682,0,1,0,0-11.363h-7.1V6.261a1.42,1.42,0,0,1,1.42-1.42H67.339a1.42,1.42,0,0,1,1.42,1.42V35.1c.018.121.024,11.847,0,11.738Z" transform="translate(-2 -2)"/>
          <path id="Trazado_339" data-name="Trazado 339" d="M53.487,55.1a1.42,1.42,0,0,0,1-.416l8.035-8.035-2.008-2.008-7.031,7.031-3.014-3.014-2.008,2.008,4.018,4.018A1.42,1.42,0,0,0,53.487,55.1Z" transform="translate(16.114 17.345)"/>
        </g>
      </g>
      <g id="Rectángulo_339" data-name="Rectángulo 339" transform="translate(1052 787)" fill="#fff" stroke="#000" stroke-width="3">
        <path d="M2,0H12a4,4,0,0,1,4,4V24a4,4,0,0,1-4,4H2a2,2,0,0,1-2-2V2A2,2,0,0,1,2,0Z" stroke="none"/>
        <path d="M2,1.5H12A2.5,2.5,0,0,1,14.5,4V24A2.5,2.5,0,0,1,12,26.5H2a.5.5,0,0,1-.5-.5V2A.5.5,0,0,1,2,1.5Z" fill="none"/>
      </g>
    </g>
    <path id="Trazado_342" data-name="Trazado 342" d="M43.744,35.749H31.374a1.374,1.374,0,0,1,0-2.749h12.37a1.374,1.374,0,0,1,0,2.749Z" transform="translate(1079.739 770.023)"/>
    <path id="Trazado_343" data-name="Trazado 343" d="M40.008,41.749H31.374a1.374,1.374,0,0,1,0-2.749h8.633a1.374,1.374,0,0,1,0,2.749Z" transform="translate(1079.739 781.271)"/>
    <path id="Trazado_344" data-name="Trazado 344" d="M41.6,41.749H31.374a1.374,1.374,0,0,1,0-2.749H41.6a1.374,1.374,0,0,1,0,2.749Z" transform="translate(1079.739 768.271)"/>
    <path id="Trazado_345" data-name="Trazado 345" d="M42.538,41.749H31.374a1.374,1.374,0,0,1,0-2.749H42.538a1.374,1.374,0,0,1,0,2.749Z" transform="translate(1079.739 785.271)"/>
  </g>
</svg>
