<svg xmlns="http://www.w3.org/2000/svg" width="29.867" height="21" viewBox="0 0 29.867 21">
  <g id="menu" transform="translate(0 -76)">
    <g id="Grupo_1232" data-name="Grupo 1232" transform="translate(0 85.333)">
      <g id="Grupo_1231" data-name="Grupo 1231" transform="translate(0 0)">
        <path id="Trazado_957" data-name="Trazado 957" d="M28.7,236H1.167a1.167,1.167,0,0,0,0,2.333H28.7a1.167,1.167,0,0,0,0-2.333Z" transform="translate(0 -236)" fill="#56e0c2"/>
      </g>
    </g>
    <g id="Grupo_1234" data-name="Grupo 1234" transform="translate(0 76)">
      <g id="Grupo_1233" data-name="Grupo 1233" transform="translate(0 0)">
        <path id="Trazado_958" data-name="Trazado 958" d="M28.7,76H1.167a1.167,1.167,0,0,0,0,2.333H28.7A1.167,1.167,0,0,0,28.7,76Z" transform="translate(0 -76)" fill="#56e0c2"/>
      </g>
    </g>
    <g id="Grupo_1236" data-name="Grupo 1236" transform="translate(0 94.667)">
      <g id="Grupo_1235" data-name="Grupo 1235" transform="translate(0 0)">
        <path id="Trazado_959" data-name="Trazado 959" d="M28.7,396H1.167a1.167,1.167,0,1,0,0,2.333H28.7a1.167,1.167,0,1,0,0-2.333Z" transform="translate(0 -396)" fill="#56e0c2"/>
      </g>
    </g>
  </g>
</svg>
