<svg xmlns="http://www.w3.org/2000/svg" width="13.086" height="18.661" viewBox="0 0 13.086 18.661">
    <defs>
        <style>
            .cls-1{fill:#57e0c1;stroke:#57e0c1;stroke-width:.3px}
        </style>
    </defs>
    <g id="pin" transform="translate(-8.05 .15)">
        <path id="Trazado_443" d="M22.89 12a2.333 2.333 0 1 0 2.333 2.333A2.336 2.336 0 0 0 22.89 12zm0 4a1.666 1.666 0 1 1 1.666-1.666A1.668 1.668 0 0 1 22.89 16z" class="cls-1" transform="translate(-8.237 -8.001)"/>
        <path id="Trazado_444" d="M19.112 1.872a6.39 6.39 0 0 0-9.038 0 7.279 7.279 0 0 0-.6 8.982l5.12 7.394 5.112-7.384a7.282 7.282 0 0 0-.594-8.992zm.053 8.6l-4.572 6.6-4.579-6.613a6.577 6.577 0 0 1 .532-8.121 5.724 5.724 0 0 1 8.095 0 6.579 6.579 0 0 1 .524 8.136z" class="cls-1"/>
    </g>
</svg>
