<svg id="star" xmlns="http://www.w3.org/2000/svg" width="11.082" height="10.571" viewBox="0 0 11.082 10.571">
  <g id="Grupo_382" data-name="Grupo 382" transform="translate(0 0)">
    <path id="Trazado_184" data-name="Trazado 184" d="M11.066,15.81a.325.325,0,0,0-.262-.221l-3.435-.5L5.832,11.977a.325.325,0,0,0-.582,0L3.713,15.09l-3.435.5a.325.325,0,0,0-.18.554l2.486,2.423L2,21.988a.325.325,0,0,0,.471.342l3.073-1.615L8.614,22.33a.325.325,0,0,0,.471-.342L8.5,18.566l2.486-2.423A.325.325,0,0,0,11.066,15.81Z" transform="translate(0 -11.796)" fill="#fff"/>
  </g>
</svg>
