<svg id="star" xmlns="http://www.w3.org/2000/svg" width="9.786" height="9.335" viewBox="0 0 9.786 9.335">
  <g id="Grupo_382" data-name="Grupo 382" transform="translate(0 0)">
    <path id="Trazado_184" data-name="Trazado 184" d="M9.772,15.341a.287.287,0,0,0-.231-.2L6.507,14.7,5.15,11.956a.287.287,0,0,0-.514,0L3.279,14.7l-3.034.441a.287.287,0,0,0-.159.489l2.2,2.14L1.764,20.8a.287.287,0,0,0,.416.3l2.713-1.427L7.606,21.1a.287.287,0,0,0,.416-.3L7.5,17.775l2.2-2.14A.287.287,0,0,0,9.772,15.341Z" transform="translate(0 -11.796)" fill="#7cdec8"/>
  </g>
</svg>
