<svg xmlns="http://www.w3.org/2000/svg" id="surface1" width="39.534" height="15.815" viewBox="0 0 39.534 15.815">
    <defs>
        <style>
            .cls-1{fill:#f58370}
        </style>
    </defs>
    <path id="Trazado_165" d="M240 86.891h2.636v1.318H240zm0 0" class="cls-1" data-name="Trazado 165" transform="translate(-223.527 -80.961)"/>
    <path id="Trazado_166" d="M38.969 4.452l-4.476-.639a22.583 22.583 0 0 0-2.536-1.344 22.189 22.189 0 0 0-9.18-1.977H22a22.4 22.4 0 0 0-10.7 2.727L9.046 4.451a15.569 15.569 0 0 0-7.534 2.043A3.008 3.008 0 0 0 0 9.1v3.913a.659.659 0 0 0 .659.659h2.212a3.939 3.939 0 0 0 7.434 0h17.6a3.939 3.939 0 0 0 7.434 0h.236a.661.661 0 0 0 .245-.047l2.134-.856a2.492 2.492 0 0 0 1.574-2.325V5.1a.659.659 0 0 0-.559-.648zM9.171 12.88a2.636 2.636 0 1 1 .053-.527 2.636 2.636 0 0 1-.053.527zm11.914-.527H10.542a3.953 3.953 0 1 0-7.907 0H1.318V9.1a1.685 1.685 0 0 1 .848-1.461 14.246 14.246 0 0 1 7.059-1.876h11.86zm0-7.907h-9.276l.127-.069a21.068 21.068 0 0 1 9.149-2.537zM22.4 1.81h.373a20.854 20.854 0 0 1 7.756 1.49l-1.15 1.15H22.4zm11.81 11.07a2.636 2.636 0 1 1 .053-.527 2.636 2.636 0 0 1-.053.527zm4.007-6.457H36.24V7.74h1.977v2.7a1.179 1.179 0 0 1-.746 1.1l-1.89.759c0-.061-.008-.121-.012-.181s-.005-.132-.012-.2-.02-.132-.03-.2-.018-.132-.032-.192-.032-.127-.05-.189-.03-.126-.05-.187-.043-.12-.066-.18-.043-.122-.066-.181-.054-.113-.082-.169-.055-.117-.086-.174-.066-.1-.1-.157-.066-.113-.1-.167-.073-.1-.109-.146-.077-.106-.119-.157-.082-.09-.123-.132-.086-.1-.132-.143-.09-.083-.136-.123-.094-.089-.145-.132-.1-.076-.151-.113-.1-.078-.153-.113-.112-.066-.169-.1-.1-.066-.156-.094l-.18-.087c-.06-.029-.108-.055-.164-.078s-.132-.049-.2-.072-.109-.042-.165-.06c-.075-.023-.152-.04-.229-.059-.05-.012-.1-.028-.149-.038-.081-.017-.164-.026-.246-.038-.049-.006-.1-.017-.144-.022a4.017 4.017 0 0 0-.4-.02 3.957 3.957 0 0 0-3.954 3.954H22.4V5.763h7.248a.658.658 0 0 0 .466-.193l1.709-1.709A21.129 21.129 0 0 1 33.914 5a.661.661 0 0 0 .256.094l4.047.578zm0 0" class="cls-1" data-name="Trazado 166" transform="translate(0 -.492)"/>
</svg>
