<svg xmlns="http://www.w3.org/2000/svg" id="motorcycle" width="35.142" height="22.169" viewBox="0 0 35.142 22.169">
    <defs>
        <style>
            .cls-1{fill:#f58370}
        </style>
    </defs>
    <g id="Grupo_374" data-name="Grupo 374">
        <path id="Trazado_172" d="M29.308 105a5.826 5.826 0 0 0-1.337.156l-3.715-10.204a.686.686 0 0 0-.645-.452h-3.226a.686.686 0 1 0 0 1.373h2.745l.881 2.419h-2.668a6.432 6.432 0 0 0-4.791 2.058c-.605 0-1.148-.015-1.65-.036a.686.686 0 1 0-.058 1.371c.42.018.867.029 1.352.035v1.3l-.881 3.668h-1.736c-.378-.342-.748-.679-1.107-1.006-3.581-3.264-6.426-5.857-9.881-6.182l-.652-.564c1.522-.517 2.876-.032 4.778.745.633.258 1.287.525 1.88.751a.686.686 0 1 0 .488-1.283c-.578-.22-1.224-.484-1.849-.739-2.107-.86-4.285-1.749-6.893-.244a.686.686 0 0 0-.106 1.114l1.626 1.406a.687.687 0 0 0 .406.166c3.081.2 5.816 2.688 9.278 5.844l1.053.958-.2 2.21-.809.036a5.839 5.839 0 1 0 .059 1.371l7.132-.314A2.89 2.89 0 0 0 20.9 110l.02-.021 5.207-5.873.555 1.524a5.83 5.83 0 1 0 2.626-.63zm-10.556 4.58a1.524 1.524 0 1 1 1.524-1.524 1.526 1.526 0 0 1-1.524 1.524zm0-4.421a2.883 2.883 0 0 0-1.814.641l.484-2.016h7.155l-3.051 3.441a2.9 2.9 0 0 0-2.775-2.065zm2.591-5.494h3.168l1 2.745h-7.943v-1.137a5.075 5.075 0 0 1 3.775-1.609zm-7.4 8.391h1.913a2.88 2.88 0 0 0 .5 1.629l-2.574.113zM5.834 115.3a4.461 4.461 0 1 1 4.374-5.341l-1.4.061a3.089 3.089 0 1 0 .06 1.371l1.4-.062a4.467 4.467 0 0 1-4.434 3.97zm0-3.775h.031l1.571-.069a1.716 1.716 0 1 1-.06-1.371l-1.576.065a.686.686 0 0 0 .03 1.372zm23.474 3.775a4.46 4.46 0 0 1-2.153-8.368l.478 1.313a3.1 3.1 0 1 0 1.29-.471l-.478-1.313a4.461 4.461 0 1 1 .863 8.838zm-.645-4.227a.686.686 0 0 0 1.29-.47l-.538-1.477a1.718 1.718 0 1 1-1.29.471z" class="cls-1" data-name="Trazado 172" transform="translate(0 -94.5)"/>
        <path id="Trazado_173" d="M162.625 175.741a.686.686 0 1 0 0-1.373.686.686 0 0 0 0 1.373z" class="cls-1" data-name="Trazado 173" transform="translate(-150.823 -168.886)"/>
    </g>
</svg>
