<svg xmlns="http://www.w3.org/2000/svg" width="13.687" height="15.763" viewBox="0 0 13.687 15.763">
  <g id="Grupo_1238" data-name="Grupo 1238" transform="translate(0.1 0.101)">
    <g id="car_1_" data-name="car (1)" transform="translate(0 0)">
      <g id="Grupo_424" data-name="Grupo 424" transform="translate(0 0)">
        <g id="Grupo_423" data-name="Grupo 423" transform="translate(0 0)">
          <path id="Trazado_221" data-name="Trazado 221" d="M45.108,6.256,39.991,1.139A3.865,3.865,0,0,0,37.239,0H33.3A1.3,1.3,0,0,0,32,1.3V15.3a.259.259,0,0,0,.259.259h7.635a1.816,1.816,0,0,0,1.594-.946,7.639,7.639,0,0,1,3.053-3.053,1.816,1.816,0,0,0,.946-1.594v-2.8A1.288,1.288,0,0,0,45.108,6.256Zm-.139,3.713a1.3,1.3,0,0,1-.676,1.139,8.151,8.151,0,0,0-3.259,3.259,1.3,1.3,0,0,1-1.139.676H32.519V1.3A.778.778,0,0,1,33.3.518h3.942a3.35,3.35,0,0,1,2.384.988l5.117,5.117a.783.783,0,0,1,.228.55Z" transform="translate(-32 0)" fill="#f7917f" stroke="#f7917f" stroke-width="0.2"/>
        </g>
      </g>
      <g id="Grupo_426" data-name="Grupo 426" transform="translate(1.037 1.038)">
        <g id="Grupo_425" data-name="Grupo 425" transform="translate(0)">
          <path id="Trazado_222" data-name="Trazado 222" d="M74.818,37.523,70.13,32.835A2.834,2.834,0,0,0,68.113,32H64.778a.778.778,0,0,0-.778.778v4.928a.259.259,0,0,0,.259.259H74.634a.259.259,0,0,0,.183-.443Zm-4.074-.076H64.519V32.778a.259.259,0,0,1,.259-.259h3.335a2.319,2.319,0,0,1,1.651.684l.98.98Zm.519,0V34.7l2.746,2.746Z" transform="translate(-64 -32)" fill="#f7917f" stroke="#f7917f" stroke-width="0.2"/>
        </g>
      </g>
      <g id="Grupo_428" data-name="Grupo 428" transform="translate(8.819 7.781)">
        <g id="Grupo_427" data-name="Grupo 427">
          <path id="Trazado_223" data-name="Trazado 223" d="M306.334,240h-1.556a.778.778,0,0,0,0,1.556h1.556a.778.778,0,1,0,0-1.556Zm0,1.037h-1.556a.259.259,0,0,1,0-.519h1.556a.259.259,0,0,1,0,.519Z" transform="translate(-304 -240)" fill="#f7917f" stroke="#f7917f" stroke-width="0.2"/>
        </g>
      </g>
    </g>
    <path id="Trazado_224" data-name="Trazado 224" d="M-17958.961,7480.621l1.939.513-.615,1.437,1.15-.406-.279,1,1.65-.591.572,1.25" transform="translate(17960.264 -7478.72)" fill="none" stroke="#f7917f" stroke-linecap="round" stroke-width="0.8"/>
  </g>
</svg>
