<svg id="crash" xmlns="http://www.w3.org/2000/svg" width="18.549" height="15.063" viewBox="0 0 18.549 15.063">
  <path id="Trazado_212" data-name="Trazado 212" d="M120,249.434a.934.934,0,1,0,.934-.934A.936.936,0,0,0,120,249.434Zm1.246,0a.311.311,0,1,1-.311-.311A.312.312,0,0,1,121.246,249.434Zm0,0" transform="translate(-116.089 -243.031)" fill="#f7917f"/>
  <path id="Trazado_213" data-name="Trazado 213" d="M313.869,161.434a.934.934,0,1,0-.934.934A.936.936,0,0,0,313.869,161.434Zm-1.246,0a.311.311,0,1,1,.311.311A.312.312,0,0,1,312.623,161.434Zm0,0" transform="translate(-300.614 -158.457)" fill="#f7917f"/>
  <path id="Trazado_214" data-name="Trazado 214" d="M12.757,64.887c-.007.073-.015.146-.015.22h.623a1.606,1.606,0,0,1,.229-.826L14,63.6l.118.177a1.894,1.894,0,0,0,.727.641l.279-.557a1.268,1.268,0,0,1-.487-.429l-.339-.508.623.717h.623l.623-.183a2.4,2.4,0,0,0-.623,1.617v.434h.623v-.434a1.782,1.782,0,0,1,.484-1.223,2.95,2.95,0,0,0,.927,1.159,2.283,2.283,0,0,1,.8,2.547l-.011.033.005,0-.541.246a2.182,2.182,0,0,0-1.1-.7l-.054-.163a1.658,1.658,0,0,0-1.043-1.043,1.038,1.038,0,0,1-.4-.248l-.733-.733-.281.7a3.414,3.414,0,0,0,.022,2.578,2.16,2.16,0,0,0-.246.923,1.687,1.687,0,0,1-1.25-1.63,2.854,2.854,0,0,0-.425-1.5,1.1,1.1,0,0,1,.828.326l.44-.44a1.727,1.727,0,0,0-1.777-.42l-.486.162.42.63a2.234,2.234,0,0,1,.377,1.244,2.307,2.307,0,0,0,1.575,2.189l-.444.2A1.4,1.4,0,0,0,12.43,71.2a1.387,1.387,0,0,0,.121.568l.865,1.947a1.4,1.4,0,0,0,1.277.83h.229v.934H14.3v1.869h3.114V75.476H16.79v-.934h.055a.777.777,0,0,1,.346.082l2.424,1.212a1.394,1.394,0,0,0,1.2.025l2-.9-.34,1.686,1.944-.392,1.1,1.651,1.1-1.652,1.944.392L28.159,74.7l1.652-1.1-1.652-1.1.392-1.944-1.559.315.02-.183a.775.775,0,0,1,.32-.544l1.331-.951a1.4,1.4,0,0,0,.585-1.137v-.141a1.387,1.387,0,0,0-.125-.578L28,64.887h1.866v-.623h-.623s-1.582,0-3.773.015C20.141,64.317,11.2,64.445,12.757,64.887Zm13.047.665a2.159,2.159,0,0,0-.156-.583l.712-.324a.8.8,0,0,1,.925.228Zm-3.719.269a1.557,1.557,0,1,1,1.557,1.557A1.559,1.559,0,0,1,22.085,65.821Zm-4.049-1.557h0Zm1.869,0h0Zm1.246,0h0Zm4.36.083ZM22.4,64.035a2.22,2.22,0,0,0-.277.229h-.346Zm-8.72-1.1-.617,1.028-.006.012Zm3.459.446-.178-.534-.167.111.623.982A2.349,2.349,0,0,1,17.135,63.378Zm1.772,2.38a2.9,2.9,0,0,0-.552-.871h3.321a2.109,2.109,0,0,0-.182,1.286l-2.411,1.1A2.9,2.9,0,0,0,18.907,65.758Zm2.776,1.013a2.18,2.18,0,0,0,.346.511l-3.7,1.7a2.161,2.161,0,0,0-.167-.607Zm-3.958,2.476a1.557,1.557,0,1,1-1.557-1.557A1.559,1.559,0,0,1,17.725,69.247Zm-3-3.178.061.061a1.656,1.656,0,0,0,.645.4,1.028,1.028,0,0,1,.6.546,2.17,2.17,0,0,0-1.345.575A2.8,2.8,0,0,1,14.729,66.069Zm-1.222,4.418.69-.314a2.183,2.183,0,0,0,.357.535l-1.475.676a.766.766,0,0,1,.428-.9Zm3.283,6.235H14.922V76.1H16.79Zm-.623-1.246h-.623v-.934h.623Zm11.588-4.114-.29,1.435,1.219.81-1.219.81.29,1.435-1.435-.29-.81,1.219-.81-1.219-1.435.29.243-1.205,2.5-1.124a1.4,1.4,0,0,0,.815-1.12l.1-.872Zm.87-3.437v.141a.776.776,0,0,1-.324.63l-1.331.95a1.4,1.4,0,0,0-.576.983L26.2,72.334a.777.777,0,0,1-.452.62l-5.193,2.337a.773.773,0,0,1-.664-.013l-2.424-1.212a1.412,1.412,0,0,0-.625-.147H14.693a.775.775,0,0,1-.708-.46l-.667-1.5,1.778-.815a2.176,2.176,0,0,0,3.208-1.47l1.089-.5,1.181.886.188.566-2.678,1.228a.832.832,0,0,0-.066,1.479l1.816,1.038a.835.835,0,0,0,.746.04l4.472-1.957a.835.835,0,0,0,.492-.659l.255-2.041a.825.825,0,0,0-.081-.475l-.016-.031a.829.829,0,0,0-1.091-.385l-3.279,1.5-.15-.449.538-.808-.518-.346-.44.66-.725-.543,2.534-1.161a2.177,2.177,0,0,0,3.208-1.471l1.787-.819.989,2.176A.767.767,0,0,1,28.625,67.925ZM22.708,72.05h.623v-.623h-.742l-.225-.451-.557.279.278.557v1.261l-1.754.767a.212.212,0,0,1-.188-.01l-1.816-1.038a.209.209,0,0,1,.017-.372l6.527-2.992a.209.209,0,0,1,.274.1l.016.032a.2.2,0,0,1,.02.119l-.255,2.041a.21.21,0,0,1-.124.166l-2.1.916Zm5.917-7.786h0Zm0,0" transform="translate(-11.322 -62.844)" fill="#f7917f"/>
</svg>
