<svg xmlns="http://www.w3.org/2000/svg" width="12.572" height="17.377" viewBox="0 0 12.572 17.377">
  <g id="car_1_" data-name="car (1)" transform="translate(0 -2)">
    <g id="Grupo_408" data-name="Grupo 408" transform="translate(0 2)">
      <g id="Grupo_407" data-name="Grupo 407">
        <path id="Trazado_208" data-name="Trazado 208" d="M89.7,0c-.008,0-.008,0-.012,0A6.283,6.283,0,0,0,83.4,6.285v0a.4.4,0,0,0,.79.1,2.276,2.276,0,0,1,.321-.718,1.1,1.1,0,0,1,.762-.3,1.081,1.081,0,0,1,.758.3,1.118,1.118,0,0,1,.309.766.4.4,0,1,0,.8,0A1.051,1.051,0,0,1,88.17,5.366h.04a1.084,1.084,0,0,1,.758.3,1.141,1.141,0,0,1,.313.766V8.466c0,.221.184.186.405.186s.4.035.4-.186V6.433a1.051,1.051,0,0,1,1.027-1.071h.044a1.11,1.11,0,0,1,.758.3,1.141,1.141,0,0,1,.313.766.4.4,0,1,0,.8,0,1.047,1.047,0,0,1,1.031-1.063H94.1a1.109,1.109,0,0,1,.758.3,1.382,1.382,0,0,1,.225.421c.064.168.1.3.1.3a.4.4,0,0,0,.79-.108A6.28,6.28,0,0,0,89.7,0Zm4.4,4.564a1.917,1.917,0,0,0-1.323.533c-.008,0-.012.012-.016.016a1.24,1.24,0,0,0-.132.156q-.06-.078-.132-.156l-.008-.008A1.9,1.9,0,0,0,89.834,5.1l-.016.016a1.24,1.24,0,0,0-.132.156q-.06-.078-.132-.156l-.008-.008A1.9,1.9,0,0,0,86.894,5.1l-.016.016a1.24,1.24,0,0,0-.132.156q-.06-.078-.132-.156s-.008-.008-.008-.012a1.9,1.9,0,0,0-1.331-.541,1.879,1.879,0,0,0-.858.2,5.486,5.486,0,0,1,10.54,0A1.94,1.94,0,0,0,94.1,4.564Z" transform="translate(-83.401)" fill="#c3cecc"/>
      </g>
    </g>
    <g id="Grupo_410" data-name="Grupo 410" transform="translate(0.309 9.992)">
      <g id="Grupo_409" data-name="Grupo 409">
        <path id="Trazado_209" data-name="Trazado 209" d="M102.954,249.979l-.582-.694c0-.012,0-.024-.008-.036l-.87-2.679a.392.392,0,0,0-.381-.273H93.193a.4.4,0,0,0-.381.277l-.85,2.671-.742.706a.394.394,0,0,0-.12.289v5.049a.385.385,0,0,0,.377.393H93.79a.389.389,0,0,0,.393-.381v-1.223h5.775v1.211a.389.389,0,0,0,.385.393h2.314a.382.382,0,0,0,.389-.377V250.24A.406.406,0,0,0,102.954,249.979Zm-9.469-2.88h7.335l.61,1.885H92.888Zm-.1,7.781H91.9v-.8h1.484Zm8.863,0h-1.484v-.8h1.484Zm0-1.6H91.9v-2.864l.666-.626h9.172l.513.6Z" transform="translate(-91.099 -246.297)" fill="#c3cecc"/>
      </g>
    </g>
    <g id="Grupo_412" data-name="Grupo 412" transform="translate(1.672 14.484)">
      <g id="Grupo_411" data-name="Grupo 411">
        <path id="Trazado_210" data-name="Trazado 210" d="M127.267,358.3H125.5a.4.4,0,0,0-.4.4v1.2a.4.4,0,0,0,.4.4h1.765a.4.4,0,0,0,.4-.4v-1.2A.4.4,0,0,0,127.267,358.3Zm-.4,1.163H125.9V359.1h.963Z" transform="translate(-125.101 -358.3)" fill="#c3cecc"/>
      </g>
    </g>
    <g id="Grupo_414" data-name="Grupo 414" transform="translate(8.33 14.484)">
      <g id="Grupo_413" data-name="Grupo 413" transform="translate(0)">
        <path id="Trazado_211" data-name="Trazado 211" d="M293.267,358.3H291.5a.4.4,0,0,0-.4.4v1.2a.4.4,0,0,0,.4.4h1.765a.4.4,0,0,0,.4-.4v-1.2A.4.4,0,0,0,293.267,358.3Zm-.4,1.163H291.9V359.1h.963Z" transform="translate(-291.101 -358.3)" fill="#c3cecc"/>
      </g>
    </g>
  </g>
</svg>
