<svg id="wheel" xmlns="http://www.w3.org/2000/svg" width="15.44" height="15.44" viewBox="0 0 15.44 15.44">
  <g id="Grupo_416" data-name="Grupo 416">
    <g id="Grupo_415" data-name="Grupo 415">
      <path id="Trazado_215" data-name="Trazado 215" d="M7.72,0a7.72,7.72,0,1,0,7.72,7.72A7.72,7.72,0,0,0,7.72,0Zm6.927,9.7-.484-.157L14,10.032l.486.158a7.2,7.2,0,0,1-.794,1.553l-.412-.3-.3.416.409.3a7.275,7.275,0,0,1-1.232,1.233l-.3-.409-.416.3.3.412a7.2,7.2,0,0,1-1.553.793L10.033,14l-.489.159.157.484a7.167,7.167,0,0,1-1.724.273v-.508H7.463v.508a7.165,7.165,0,0,1-1.723-.273l.157-.484L5.408,14l-.159.486A7.2,7.2,0,0,1,3.7,13.7l.3-.412-.416-.3-.3.409a7.275,7.275,0,0,1-1.233-1.233l.409-.3-.3-.416-.412.3a7.2,7.2,0,0,1-.792-1.552l.486-.158-.159-.489L.795,9.7A7.167,7.167,0,0,1,.521,7.978h.508V7.463H.521A7.166,7.166,0,0,1,.794,5.74l.484.157.159-.489L.952,5.25A7.2,7.2,0,0,1,1.746,3.7l.412.3.3-.416-.411-.3A7.275,7.275,0,0,1,3.282,2.05l.3.409L4,2.156l-.3-.412A7.2,7.2,0,0,1,5.25.952l.158.486L5.9,1.278,5.739.795A7.167,7.167,0,0,1,7.463.521v.508h.515V.521A7.165,7.165,0,0,1,9.7.794l-.157.484.489.159.159-.484a7.2,7.2,0,0,1,1.553.794l-.3.412.416.3.3-.409a7.275,7.275,0,0,1,1.233,1.233l-.409.3.3.416.412-.3a7.2,7.2,0,0,1,.793,1.55L14,5.408l.159.489.484-.157a7.168,7.168,0,0,1,.273,1.724h-.508v.515h.508A7.166,7.166,0,0,1,14.647,9.7Z" fill="#c3cecc"/>
    </g>
  </g>
  <g id="Grupo_418" data-name="Grupo 418" transform="translate(2.059 2.059)">
    <g id="Grupo_417" data-name="Grupo 417">
      <path id="Trazado_216" data-name="Trazado 216" d="M69.661,64a5.662,5.662,0,1,0,5.661,5.662A5.662,5.662,0,0,0,69.661,64Zm0,10.809a5.147,5.147,0,1,1,5.147-5.147A5.147,5.147,0,0,1,69.661,74.809Z" transform="translate(-64 -64)" fill="#c3cecc"/>
    </g>
  </g>
  <g id="Grupo_420" data-name="Grupo 420" transform="translate(3.345 3.345)">
    <g id="Grupo_419" data-name="Grupo 419">
      <path id="Trazado_217" data-name="Trazado 217" d="M108.375,104a4.375,4.375,0,1,0,4.375,4.375A4.375,4.375,0,0,0,108.375,104Zm3.309,2.4a3.827,3.827,0,0,1,.533,1.632l-1.612-.13a.257.257,0,0,1-.146-.451Zm-2.45-1.783-.622,1.493a.257.257,0,0,1-.475,0l-.622-1.493A3.747,3.747,0,0,1,109.234,104.615Zm-4.168,1.783,1.225,1.051a.257.257,0,0,1-.147.452l-1.612.13A3.827,3.827,0,0,1,105.066,106.4Zm2.167,3.952-.374,1.574a3.878,3.878,0,0,1-1.387-1.013h0l1.377-.84a.257.257,0,0,1,.384.279Zm2.658,1.574h0l-.374-1.574a.257.257,0,0,1,.384-.279l1.377.84A3.878,3.878,0,0,1,109.89,111.924Zm.278-2.293a.772.772,0,0,0-1.153.838l.386,1.623a3.762,3.762,0,0,1-2.054,0h0l.386-1.623a.772.772,0,0,0-1.153-.838l-1.424.869a3.835,3.835,0,0,1-.633-1.954l1.662-.134a.772.772,0,0,0,.44-1.355l-1.266-1.086a3.873,3.873,0,0,1,1.661-1.207l.641,1.54a.772.772,0,0,0,1.425,0l.642-1.54a3.875,3.875,0,0,1,1.661,1.207l-1.265,1.086a.772.772,0,0,0,.44,1.355l1.662.134a3.835,3.835,0,0,1-.633,1.954Z" transform="translate(-104 -104)" fill="#c3cecc"/>
    </g>
  </g>
  <g id="Grupo_422" data-name="Grupo 422" transform="translate(6.691 6.691)">
    <g id="Grupo_421" data-name="Grupo 421">
      <path id="Trazado_218" data-name="Trazado 218" d="M209.029,208a1.029,1.029,0,1,0,1.029,1.029A1.029,1.029,0,0,0,209.029,208Zm0,1.544a.515.515,0,1,1,.515-.515A.515.515,0,0,1,209.029,209.544Z" transform="translate(-208 -208)" fill="#c3cecc"/>
    </g>
  </g>
</svg>
