<?xml version="1.0" standalone="no"?>
<!DOCTYPE svg PUBLIC "-//W3C//DTD SVG 20010904//EN"
 "http://www.w3.org/TR/2001/REC-SVG-20010904/DTD/svg10.dtd">
<svg version="1.0" xmlns="http://www.w3.org/2000/svg"
 width="501.000000pt" height="501.000000pt" viewBox="0 0 501.000000 501.000000"
 preserveAspectRatio="xMidYMid meet">
<metadata>
Created by potrace 1.11, written by Peter Selinger 2001-2013
</metadata>
<g transform="translate(0.000000,501.000000) scale(0.100000,-0.100000)"
fill="#000000" stroke="none">
<path d="M2667 5004 c-1 -1 -42 -4 -92 -8 -187 -14 -409 -77 -600 -171 -507
-250 -917 -763 -1138 -1426 -67 -201 -130 -471 -152 -654 -4 -27 -8 -61 -10
-75 -21 -143 -28 -632 -11 -810 4 -47 9 -103 11 -125 10 -116 17 -170 36 -284
28 -171 26 -163 54 -281 14 -58 27 -114 30 -126 11 -49 65 -216 100 -309 101
-269 268 -506 437 -618 248 -164 595 -145 878 51 87 60 233 209 299 307 45 66
181 320 181 338 0 3 5 18 12 34 6 15 12 30 13 33 1 3 18 57 38 120 32 104 64
252 82 383 7 49 9 93 20 447 4 113 9 232 10 265 2 33 3 85 4 117 l1 56 73 12
c68 12 82 14 125 24 161 36 372 114 500 183 69 38 233 141 242 152 3 3 29 26
58 50 167 136 315 334 393 523 115 279 127 595 33 878 -171 512 -686 857
-1354 906 -76 5 -269 11 -273 8z m313 -589 c87 -12 164 -30 255 -59 11 -3 36
-14 108 -45 154 -67 302 -202 367 -335 60 -122 75 -190 75 -336 0 -140 -13
-197 -72 -311 -110 -214 -342 -377 -653 -458 -41 -11 -92 -22 -114 -25 -21 -4
-43 -9 -49 -13 -6 -4 -8 17 -4 63 10 100 21 159 67 349 23 94 44 179 46 190 2
11 15 65 28 119 34 139 24 208 -36 262 -51 47 -88 58 -193 59 -55 0 -111 -3
-125 -6 -178 -46 -318 -239 -384 -530 -26 -115 -43 -264 -45 -403 -1 -61 -4
-113 -7 -117 -10 -17 -209 62 -358 140 -70 37 -108 39 -141 7 -30 -30 -44 -83
-46 -176 -2 -99 9 -176 31 -220 47 -92 181 -180 430 -284 36 -15 76 -33 89
-39 l25 -12 -2 -184 c-2 -179 -7 -293 -17 -416 -8 -100 -17 -189 -20 -206 -2
-9 -6 -40 -10 -69 -4 -29 -9 -62 -11 -74 -2 -12 -7 -37 -10 -56 -4 -19 -8 -42
-9 -50 -48 -252 -156 -472 -272 -553 -121 -86 -273 -69 -362 40 -17 21 -49 72
-70 113 -71 137 -120 318 -146 539 -4 30 -9 63 -11 75 -2 12 -6 58 -10 104 -3
46 -7 92 -9 103 -7 36 -18 389 -18 584 0 177 8 390 18 460 2 17 7 53 10 80 12
97 16 121 46 270 131 639 422 1107 821 1323 61 33 179 78 231 88 177 34 367
37 557 9z"/>
</g>
</svg>
