<svg id="Componente_5_1" data-name="Componente 5 – 1" xmlns="http://www.w3.org/2000/svg" width="123.295" height="62.726" viewBox="0 0 123.295 62.726">
  <g id="Grupo_361" data-name="Grupo 361">
    <g id="Grupo_359" data-name="Grupo 359" transform="translate(0 0)">
      <path id="Trazado_146" data-name="Trazado 146" d="M111.121,155.708a18.954,18.954,0,0,1,6.423.992,13.729,13.729,0,0,1,4.591,2.639,10.882,10.882,0,0,1,2.759,3.784,11.023,11.023,0,0,1,.927,4.428,11.416,11.416,0,0,1-.829,4.231,12.089,12.089,0,0,1-2.5,3.861,15.1,15.1,0,0,1-4.209,3.053,19.765,19.765,0,0,1-5.965,1.81q-.066,1.592-.109,2.923-.022.567-.043,1.134t-.033,1.036q-.011.469-.022.818c-.008.233-.011.392-.011.48a19.906,19.906,0,0,1-.36,3.173,19.112,19.112,0,0,1-.916,3.217,17.974,17.974,0,0,1-1.461,2.977,11.522,11.522,0,0,1-2.007,2.465,9.192,9.192,0,0,1-2.563,1.679,7.623,7.623,0,0,1-3.1.622,5.677,5.677,0,0,1-3.2-.927,8.865,8.865,0,0,1-2.465-2.5,16.146,16.146,0,0,1-1.788-3.62,31.681,31.681,0,0,1-1.189-4.286,40.943,40.943,0,0,1-.665-4.5q-.208-2.268-.207-4.275a34.282,34.282,0,0,1,.632-6.652,30.932,30.932,0,0,1,1.81-6.009,25.414,25.414,0,0,1,2.857-5.114,19.882,19.882,0,0,1,3.784-3.969,16.543,16.543,0,0,1,4.58-2.563A15.219,15.219,0,0,1,111.121,155.708ZM98.034,180.354q0,.894.011,2.41t.12,3.239q.109,1.723.349,3.49a18.027,18.027,0,0,0,.709,3.195,7.607,7.607,0,0,0,1.178,2.334,2.171,2.171,0,0,0,1.778.905,2.6,2.6,0,0,0,1.9-.775,6.144,6.144,0,0,0,1.309-2.007,14.052,14.052,0,0,0,.829-2.792q.305-1.559.458-3.13t.2-3q.044-1.428.044-2.432v-1.025a30.734,30.734,0,0,1-2.846-1.265,6.956,6.956,0,0,1-1.559-1.047,2.246,2.246,0,0,1-.665-1.058,5.268,5.268,0,0,1-.142-1.3q0-.392.022-.774a2.6,2.6,0,0,1,.12-.676,1.206,1.206,0,0,1,.284-.48.694.694,0,0,1,.513-.185.938.938,0,0,1,.4.087q.185.087.469.24.72.393,1.309.644t1,.4a6.963,6.963,0,0,0,.873.262q0-.283.011-1.123t.131-1.919a18.261,18.261,0,0,1,.4-2.258,8.542,8.542,0,0,1,.829-2.159,5.014,5.014,0,0,1,1.418-1.625,3.538,3.538,0,0,1,2.159-.644,4.44,4.44,0,0,1,.807.077,2.182,2.182,0,0,1,.752.284,1.8,1.8,0,0,1,.567.556,1.6,1.6,0,0,1,.229.894,1.231,1.231,0,0,1-.011.207.729.729,0,0,0-.011.142l-1.331,5.605-.2,1.723a13.657,13.657,0,0,0,3.686-1.047,9.246,9.246,0,0,0,2.563-1.7,6.454,6.454,0,0,0,1.5-2.159,6.233,6.233,0,0,0,.491-2.421,7.211,7.211,0,0,0-.469-2.5,5.872,5.872,0,0,0-1.625-2.323,8.951,8.951,0,0,0-3.1-1.723,15.05,15.05,0,0,0-4.886-.676,9.272,9.272,0,0,0-3.991.84,10.79,10.79,0,0,0-3.185,2.279,14.828,14.828,0,0,0-2.421,3.358,22.921,22.921,0,0,0-1.69,4.09,28.393,28.393,0,0,0-.981,4.471A32.9,32.9,0,0,0,98.034,180.354Z" transform="translate(-92.189 -153.592)" fill="#56e0c2"/>
      <path id="Trazado_147" data-name="Trazado 147" d="M188.614,210.1a11.689,11.689,0,0,1,.949,2.672,11.822,11.822,0,0,1,.033,5.289,13.356,13.356,0,0,1-.818,2.53,12.259,12.259,0,0,1-1.308,2.29,9.338,9.338,0,0,1-1.767,1.854,8.369,8.369,0,0,1-2.17,1.243,6.865,6.865,0,0,1-2.508.458,6.133,6.133,0,0,1-3.283-.84,6.981,6.981,0,0,1-2.235-2.192,9.708,9.708,0,0,1-1.276-3.053,14.87,14.87,0,0,1-.4-3.446,13.637,13.637,0,0,1,.72-4.482,10.824,10.824,0,0,1,2.061-3.62,9.531,9.531,0,0,1,3.283-2.421,10.414,10.414,0,0,1,4.362-.883,11.518,11.518,0,0,1,3.882.643,14.774,14.774,0,0,1,3.391,1.723,19.418,19.418,0,0,1,2.945,2.476,37.627,37.627,0,0,1,2.541,2.879l-.414,3.075a12.658,12.658,0,0,0-1.592-1.7q-1-.916-2.126-1.788t-2.214-1.647q-1.091-.774-1.876-1.3Zm-6.74,12.149a1.991,1.991,0,0,0,1.44-.753,7.113,7.113,0,0,0,1.221-1.9,13.088,13.088,0,0,0,.84-2.53,11.9,11.9,0,0,0,.316-2.65,10.707,10.707,0,0,0-.153-1.864,5.734,5.734,0,0,0-.458-1.494,2.756,2.756,0,0,0-.785-1,1.836,1.836,0,0,0-1.156-.371,2.457,2.457,0,0,0-1.7.763,7.163,7.163,0,0,0-1.418,1.952,12.462,12.462,0,0,0-1.308,5.4,8.137,8.137,0,0,0,.174,1.723,4.428,4.428,0,0,0,.546,1.407,2.735,2.735,0,0,0,2.443,1.32Z" transform="translate(-142.964 -184.56)" fill="#56e0c2"/>
      <path id="Trazado_148" data-name="Trazado 148" d="M238.981,210.1a11.671,11.671,0,0,1,.948,2.672,11.815,11.815,0,0,1,.033,5.289,13.358,13.358,0,0,1-.818,2.53,12.283,12.283,0,0,1-1.309,2.29,9.329,9.329,0,0,1-1.767,1.854,8.361,8.361,0,0,1-2.17,1.243,6.864,6.864,0,0,1-2.508.458,6.135,6.135,0,0,1-3.282-.84,6.984,6.984,0,0,1-2.235-2.192,9.708,9.708,0,0,1-1.276-3.053,14.873,14.873,0,0,1-.4-3.446,13.637,13.637,0,0,1,.72-4.482,10.824,10.824,0,0,1,2.061-3.62,9.535,9.535,0,0,1,3.283-2.421,10.414,10.414,0,0,1,4.362-.883,11.516,11.516,0,0,1,3.882.643,14.793,14.793,0,0,1,3.392,1.723,19.419,19.419,0,0,1,2.944,2.476,37.63,37.63,0,0,1,2.541,2.879l-.414,3.075a12.675,12.675,0,0,0-1.592-1.7q-1-.916-2.127-1.788t-2.214-1.647q-1.09-.774-1.876-1.3Zm-6.74,12.149a1.992,1.992,0,0,0,1.44-.753,7.121,7.121,0,0,0,1.221-1.9,13.062,13.062,0,0,0,.84-2.53,11.9,11.9,0,0,0,.316-2.65,10.743,10.743,0,0,0-.153-1.864,5.764,5.764,0,0,0-.458-1.494,2.757,2.757,0,0,0-.785-1,1.835,1.835,0,0,0-1.156-.371,2.456,2.456,0,0,0-1.7.763,7.147,7.147,0,0,0-1.418,1.952,12.455,12.455,0,0,0-1.309,5.4,8.112,8.112,0,0,0,.175,1.723,4.419,4.419,0,0,0,.545,1.407,2.735,2.735,0,0,0,2.442,1.32Z" transform="translate(-174.291 -184.56)" fill="#56e0c2"/>
      <path id="Trazado_149" data-name="Trazado 149" d="M281.969,191.987a3.036,3.036,0,0,1-2.192-1.036,9.071,9.071,0,0,1-1.767-2.781,18.9,18.9,0,0,1-1.178-4.046,26.542,26.542,0,0,1-.425-4.831,34.286,34.286,0,0,1,.284-4.22q.283-2.279.829-4.7t1.3-4.864a49.575,49.575,0,0,1,1.7-4.689,39.534,39.534,0,0,1,2.061-4.2,22.8,22.8,0,0,1,2.334-3.4,10.98,10.98,0,0,1,2.552-2.28,5.064,5.064,0,0,1,2.7-.829,2.648,2.648,0,0,1,1.548.425,2.952,2.952,0,0,1,.959,1.123,5.456,5.456,0,0,1,.491,1.581,11.384,11.384,0,0,1,.142,1.8,19.354,19.354,0,0,1-.469,4.177,32.334,32.334,0,0,1-1.265,4.275q-.8,2.149-1.843,4.308t-2.181,4.286q-1.135,2.126-2.28,4.188t-2.148,4.024a4.678,4.678,0,0,0-.229.567q-.12.349-.229.752c-.073.27-.146.556-.218.862s-.131.6-.174.894v.305a5,5,0,0,0,.12,1.1,5.985,5.985,0,0,0,.294.959,2.867,2.867,0,0,0,.371.676q.2.251.37.251a3.1,3.1,0,0,0,.949-.175,8.684,8.684,0,0,0,1.134-.469q.6-.294,1.232-.676t1.221-.774q1.374-.916,2.879-2.116l1.788,4.58a45,45,0,0,1-3.839,2.486q-.829.458-1.712.905t-1.778.8a13.738,13.738,0,0,1-1.745.556A6.735,6.735,0,0,1,281.969,191.987Zm.022-17.448q.981-1.745,2.083-3.926t2.083-4.493q.982-2.311,1.7-4.613a21.514,21.514,0,0,0,.916-4.286q0-.632-.033-1.08c-.022-.3-.091-.447-.208-.447a1.977,1.977,0,0,0-1.363.818,10.984,10.984,0,0,0-1.461,2.214,25.9,25.9,0,0,0-1.4,3.25q-.666,1.854-1.189,3.947a40.656,40.656,0,0,0-.829,4.308A31.49,31.49,0,0,0,281.991,174.539Z" transform="translate(-206.766 -150.111)" fill="#56e0c2"/>
      <path id="Trazado_150" data-name="Trazado 150" d="M311.1,222.554a17.129,17.129,0,0,0,4.013-.436,15.176,15.176,0,0,0,3.283-1.178,13.846,13.846,0,0,0,2.661-1.734,17.527,17.527,0,0,0,2.148-2.126l.24,4.995a11.413,11.413,0,0,1-1.691,1.647,12.58,12.58,0,0,1-2.17,1.4,13.268,13.268,0,0,1-2.476.959,9.567,9.567,0,0,1-2.562.36,2.1,2.1,0,0,1-.382-.043l-.8-.153q-.567-.108-1.625-.294t-2.868-.447v.392a35.938,35.938,0,0,1-.665,7.209,23.549,23.549,0,0,1-1.778,5.529,10.855,10.855,0,0,1-2.552,3.533A4.536,4.536,0,0,1,300.9,243.4a3.4,3.4,0,0,1-2.072-.611,4.267,4.267,0,0,1-1.319-1.646,8.637,8.637,0,0,1-.7-2.421,19.86,19.86,0,0,1-.207-2.934,8.329,8.329,0,0,1,.284-2.018,19.977,19.977,0,0,1,.763-2.356q.48-1.232,1.08-2.508t1.232-2.475q1.483-2.792,3.381-5.758.24-1.7.491-3.49t.632-3.468a23.147,23.147,0,0,1,.96-3.184,9.507,9.507,0,0,1,1.483-2.618,6.79,6.79,0,0,1,2.17-1.767,6.574,6.574,0,0,1,3.053-.654,8.32,8.32,0,0,1,2.486.36,5.244,5.244,0,0,1,2.028,1.167,5.552,5.552,0,0,1,1.374,2.083,8.581,8.581,0,0,1,.5,3.13,9.494,9.494,0,0,1-.436,2.868,9.1,9.1,0,0,1-1.363,2.65,11.871,11.871,0,0,1-2.355,2.367,16.52,16.52,0,0,1-3.392,1.974Zm-10.338,13.5a3.369,3.369,0,0,0,.076.567,3.618,3.618,0,0,0,.251.785,2.517,2.517,0,0,0,.458.7.916.916,0,0,0,.7.305.7.7,0,0,0,.611-.4,3.757,3.757,0,0,0,.393-1.079,10.7,10.7,0,0,0,.218-1.527q.066-.851.109-1.745t.054-1.745q.011-.851.054-1.527.066-1.178.1-2t.055-1.364q.022-.611.043-1.025a14.5,14.5,0,0,0-.807,1.669q-.392.948-.741,1.974t-.633,2.05q-.283,1.025-.491,1.908t-.327,1.527A5.755,5.755,0,0,0,300.766,236.054Zm7.59-15.7a11.176,11.176,0,0,0,2.258-1.461,10.679,10.679,0,0,0,1.636-1.723,9.786,9.786,0,0,0,1.123-1.9,12.592,12.592,0,0,0,.7-2.006,6.593,6.593,0,0,0,.142-1.124,3.672,3.672,0,0,0-.13-1.21,2.218,2.218,0,0,0-.567-.97,1.517,1.517,0,0,0-1.123-.4,2.338,2.338,0,0,0-1.418.447,3.942,3.942,0,0,0-1.058,1.21,7.715,7.715,0,0,0-.741,1.81,19,19,0,0,0-.48,2.246q-.185,1.2-.262,2.5T308.355,220.351Z" transform="translate(-219.325 -184.56)" fill="#56e0c2"/>
      <path id="Trazado_151" data-name="Trazado 151" d="M371.792,210.1a11.692,11.692,0,0,1,.949,2.672,11.817,11.817,0,0,1,.033,5.289,13.388,13.388,0,0,1-.818,2.53,12.325,12.325,0,0,1-1.309,2.29,9.33,9.33,0,0,1-1.767,1.854,8.361,8.361,0,0,1-2.17,1.243,6.865,6.865,0,0,1-2.508.458,6.134,6.134,0,0,1-3.283-.84,6.982,6.982,0,0,1-2.236-2.192,9.708,9.708,0,0,1-1.276-3.053,14.873,14.873,0,0,1-.4-3.446,13.638,13.638,0,0,1,.72-4.482,10.812,10.812,0,0,1,2.061-3.62,9.532,9.532,0,0,1,3.282-2.421,10.413,10.413,0,0,1,4.362-.883,11.519,11.519,0,0,1,3.882.643,14.789,14.789,0,0,1,3.391,1.723,19.4,19.4,0,0,1,2.944,2.476,37.554,37.554,0,0,1,2.541,2.879l-.415,3.075a12.651,12.651,0,0,0-1.592-1.7q-1-.916-2.127-1.788t-2.213-1.647q-1.091-.774-1.876-1.3Zm-6.739,12.149a1.991,1.991,0,0,0,1.44-.753,7.131,7.131,0,0,0,1.221-1.9,13.084,13.084,0,0,0,.84-2.53,11.921,11.921,0,0,0,.316-2.65,10.706,10.706,0,0,0-.153-1.864,5.751,5.751,0,0,0-.458-1.494,2.754,2.754,0,0,0-.785-1,1.834,1.834,0,0,0-1.156-.371,2.454,2.454,0,0,0-1.7.763A7.155,7.155,0,0,0,363.2,212.4a12.462,12.462,0,0,0-1.308,5.4,8.137,8.137,0,0,0,.174,1.723,4.427,4.427,0,0,0,.545,1.407,2.736,2.736,0,0,0,2.443,1.32Z" transform="translate(-256.895 -184.56)" fill="#56e0c2"/>
    </g>
    <g id="Grupo_360" data-name="Grupo 360" transform="translate(2.439 50.972)">
      <path id="Trazado_152" data-name="Trazado 152" d="M102.438,290.627l-.2.916a2.12,2.12,0,0,1,1.428-.525c.83,0,1.489.476,1.489,1.929,0,1.648-.634,4.309-3,4.309a1.086,1.086,0,0,1-1.038-.439l-.634,2.978-1.843.44,2.038-9.606Zm1.049,2.283c0-.94-.391-1.013-.61-1.013a1.092,1.092,0,0,0-.842.6l-.72,3.417a.45.45,0,0,0,.464.281C103.061,296.193,103.488,294.057,103.488,292.91Z" transform="translate(-98.642 -288.479)" fill="#302c42"/>
      <path id="Trazado_153" data-name="Trazado 153" d="M121.148,293.484a.284.284,0,0,0,.134.025,3.888,3.888,0,0,0,1.88-.732l.11.329a3.852,3.852,0,0,1-2.16,1.013c-.2,2.258-1.416,3.674-2.917,3.674a1.738,1.738,0,0,1-1.953-1.929c0-1.4.83-4.333,3.344-4.333C120.635,291.531,121.148,292.2,121.148,293.484Zm-1.05.672c-.256-.061-.33-.269-.33-.513a.67.67,0,0,1,.378-.659c-.024-.513-.146-.708-.463-.708-.867,0-1.624,2.233-1.624,3.43,0,.806.159.989.623.989C119.28,296.694,119.9,295.6,120.1,294.156Z" transform="translate(-109.588 -289.041)" fill="#302c42"/>
      <path id="Trazado_154" data-name="Trazado 154" d="M135.325,293.484a.286.286,0,0,0,.135.025,3.89,3.89,0,0,0,1.88-.732l.11.329a3.852,3.852,0,0,1-2.16,1.013c-.2,2.258-1.416,3.674-2.917,3.674a1.738,1.738,0,0,1-1.953-1.929c0-1.4.83-4.333,3.344-4.333C134.812,291.531,135.325,292.2,135.325,293.484Zm-1.049.672c-.256-.061-.33-.269-.33-.513a.67.67,0,0,1,.378-.659c-.024-.513-.146-.708-.464-.708-.866,0-1.623,2.233-1.623,3.43,0,.806.158.989.622.989C133.457,296.694,134.08,295.6,134.275,294.156Z" transform="translate(-118.405 -289.041)" fill="#302c42"/>
      <path id="Trazado_155" data-name="Trazado 155" d="M146.531,291.891a1.884,1.884,0,0,0-.049.354.436.436,0,0,0,.5.488.8.8,0,0,0,.391-.073,1.3,1.3,0,0,1-1.343,1.281c-.732,0-1.306-.451-1.306-1.489a3.984,3.984,0,0,1,.1-.794l1.306-6.115,1.807-.244Z" transform="translate(-127.304 -285.165)" fill="#302c42"/>
      <path id="Trazado_156" data-name="Trazado 156" d="M164.849,285.364l-1.4,6.591a1.69,1.69,0,0,0-.049.391c0,.342.159.451.5.451.476,0,.806-.463.989-1.074h.513c-.7,1.989-1.794,2.185-2.453,2.185a1.12,1.12,0,0,1-1.2-1.05,2.171,2.171,0,0,1-1.807,1.123c-.83,0-1.624-.512-1.624-1.965,0-1.647,1.014-4.272,3.137-4.272.7,0,.989.269.989.623v.049l.6-2.808Zm-3.112,6.36.6-2.8a.484.484,0,0,0-.5-.428c-1.037,0-1.709,2.2-1.709,3.345,0,.94.391.952.61.952a1.2,1.2,0,0,0,1-1.013Z" transform="translate(-135.759 -285.205)" fill="#302c42"/>
      <path id="Trazado_157" data-name="Trazado 157" d="M177.805,296.658a2.492,2.492,0,0,0,1.44-.647,1.962,1.962,0,0,1-2.111,1.806,1.71,1.71,0,0,1-1.892-1.941c0-1.4.793-4.345,3.3-4.345,1.086,0,1.343.562,1.343,1.172a2.822,2.822,0,0,1-2.807,2.575c-.012.122-.024.257-.024.366C177.049,296.413,177.378,296.658,177.805,296.658Zm.83-4.48c-.61,0-1.221,1.355-1.477,2.515a2.026,2.026,0,0,0,1.782-2.014C178.94,292.374,178.867,292.178,178.635,292.178Z" transform="translate(-146.284 -289.041)" fill="#302c42"/>
      <path id="Trazado_158" data-name="Trazado 158" d="M195.379,290.627l-.2.916a2.122,2.122,0,0,1,1.428-.525c.83,0,1.489.476,1.489,1.929,0,1.648-.634,4.309-3,4.309a1.086,1.086,0,0,1-1.038-.439l-.635,2.978-1.843.44,2.038-9.606Zm1.05,2.283c0-.94-.391-1.013-.61-1.013a1.092,1.092,0,0,0-.842.6l-.72,3.417a.45.45,0,0,0,.464.281C196,296.193,196.429,294.057,196.429,292.91Z" transform="translate(-156.448 -288.479)" fill="#302c42"/>
      <path id="Trazado_159" data-name="Trazado 159" d="M214.089,293.484a.284.284,0,0,0,.134.025,3.89,3.89,0,0,0,1.88-.732l.11.329a3.852,3.852,0,0,1-2.16,1.013c-.2,2.258-1.416,3.674-2.917,3.674a1.738,1.738,0,0,1-1.953-1.929c0-1.4.83-4.333,3.344-4.333C213.576,291.531,214.089,292.2,214.089,293.484Zm-1.05.672c-.256-.061-.33-.269-.33-.513a.67.67,0,0,1,.378-.659c-.024-.513-.146-.708-.464-.708-.866,0-1.623,2.233-1.623,3.43,0,.806.159.989.623.989C212.221,296.694,212.844,295.6,213.039,294.156Z" transform="translate(-167.394 -289.041)" fill="#302c42"/>
      <path id="Trazado_160" data-name="Trazado 160" d="M226.763,285.364l-1.4,6.591a1.689,1.689,0,0,0-.049.391c0,.342.159.451.5.451.476,0,.915-.463,1.1-1.074h.513c-.7,1.989-1.9,2.258-2.563,2.258-.732,0-1.306-.439-1.306-1.465a3.982,3.982,0,0,1,.1-.793l1.306-6.115Z" transform="translate(-176.332 -285.205)" fill="#302c42"/>
      <path id="Trazado_161" data-name="Trazado 161" d="M234.86,287.544l-.879,4.15a1.689,1.689,0,0,0-.049.391c0,.342.159.451.5.451a.8.8,0,0,0,.391-.073,1.275,1.275,0,0,1-1.343,1.257c-.732,0-1.306-.439-1.306-1.465a3.986,3.986,0,0,1,.1-.793l.83-3.918Zm-.549-2.6a.98.98,0,0,1,.976.976.969.969,0,0,1-.976.964.959.959,0,0,1-.964-.964A.969.969,0,0,1,234.311,284.944Zm4.016,7.336a.62.62,0,0,1,.683-.525.52.52,0,0,1,.537.586,1.436,1.436,0,0,1-1.489,1.306h-3.234l3.112-5.444h-.684c-.378,0-.671.025-.671.2,0,.061.135-.012.135.269a.623.623,0,0,1-.659.647.531.531,0,0,1-.561-.537,1.4,1.4,0,0,1,1.416-1.233h3.137l-2.991,5.163c.208.012.6.074.928.074.293,0,.537-.049.574-.245A.237.237,0,0,1,238.327,292.28Z" transform="translate(-181.695 -284.944)" fill="#302c42"/>
      <path id="Trazado_162" data-name="Trazado 162" d="M258.6,291.721l-.879,4.15a1.689,1.689,0,0,0-.049.391c0,.342.159.525.5.525.476,0,.806-.537.989-1.147h.513c-.7,1.989-1.794,2.258-2.453,2.258a1.121,1.121,0,0,1-1.2-1.123,2.208,2.208,0,0,1-1.819,1.123c-.83,0-1.623-.512-1.623-1.965,0-1.647,1.013-4.272,3.137-4.272.7,0,.989.269.989.623v.085l.135-.647Zm-4.211,4.04c0,.94.391.952.611.952a1.228,1.228,0,0,0,1.013-1.074l.586-2.759a.474.474,0,0,0-.5-.464C255.063,292.417,254.391,294.614,254.391,295.761Z" transform="translate(-194.389 -289.121)" fill="#302c42"/>
      <path id="Trazado_163" data-name="Trazado 163" d="M272.913,290.821c.147,3.161.269,3.637.269,4.443a2.215,2.215,0,0,1-2.441,2.111,1.6,1.6,0,0,1-1.782-1.562,1.251,1.251,0,0,1,.647-1.135,18.443,18.443,0,0,0,1.5-3.613Zm-2.978,4.895a.353.353,0,0,1-.33-.159c0,.573.208.854.745.854a1,1,0,0,0,1.062-1.135c0-.635-.11-1.013-.232-2.893a14,14,0,0,1-.989,2.307.46.46,0,0,1,.281.427A.58.58,0,0,1,269.934,295.716Z" transform="translate(-204.572 -288.599)" fill="#302c42"/>
    </g>
  </g>
</svg>
