<svg id="Tow_Truck" data-name="Tow Truck" xmlns="http://www.w3.org/2000/svg" width="20.441" height="16.64" viewBox="0 0 20.441 16.64">
  <rect id="Rectángulo_154" data-name="Rectángulo 154" width="1.363" height="0.681" transform="translate(13.628 10.166)" fill="#f7917f"/>
  <path id="Trazado_219" data-name="Trazado 219" d="M22.206,16.819,20.55,13.752a1.022,1.022,0,0,0-.9-.536H14.987L4.208,8.192a.341.341,0,0,0-.453.165L3.18,9.594a.341.341,0,0,0,.165.454l.018.007v1.8a.341.341,0,0,0,.341.341.341.341,0,1,1-.341.341H2.681a1.022,1.022,0,1,0,1.363-.964v-1.2L12.9,14.5v4.847H2.341A.341.341,0,0,0,2,19.689v2.726a.681.681,0,0,0,.681.681h.712a2.042,2.042,0,0,0,4.027,0H16a2.042,2.042,0,0,0,4.027,0h1.393a1.022,1.022,0,0,0,1.022-1.022V17.682A1.69,1.69,0,0,0,22.206,16.819ZM19.95,14.076l1.56,2.887h-5.2V13.9H19.65a.341.341,0,0,1,.3.179ZM4.229,8.954l10.035,4.677v.754L3.942,9.573Zm9.354,5.865.681.318v4.212h-.681Zm-8.177,9.3A1.363,1.363,0,1,1,6.77,22.756,1.363,1.363,0,0,1,5.407,24.118Zm0-3.407a2.046,2.046,0,0,0-2.013,1.7H2.681V20.03H14.265v2.385H7.42A2.046,2.046,0,0,0,5.407,20.711Zm12.606,3.407a1.363,1.363,0,1,1,1.363-1.363A1.363,1.363,0,0,1,18.012,24.118Zm3.407-1.7H20.026a2.042,2.042,0,0,0-4.027,0H14.946V13.9h.681V17.3a.341.341,0,0,0,.341.341h5.787c0,.012.005.024.005.037v.645H20.4a.681.681,0,0,0-.681.681v.681a.681.681,0,0,0,.681.681H21.76v.681H20.738v.681H21.76v.341A.341.341,0,0,1,21.419,22.415Zm.341-3.407v.681H20.4v-.681Z" transform="translate(-2 -8.16)" fill="#f7917f"/>
  <path id="Trazado_220" data-name="Trazado 220" d="M5,29.77H9.217a1.016,1.016,0,0,0,1.919,0h.744a.341.341,0,0,0,.341-.341V28.066a.341.341,0,0,0-.1-.241l-.678-.681a.341.341,0,0,0-.242-.1h-.558L8.354,25.082A.341.341,0,0,0,8.132,25H5.147a1.016,1.016,0,0,0-.914.565l-.74,1.479H2.681A.681.681,0,0,0,2,27.726v1.7a.341.341,0,0,0,.341.341h.744A1.016,1.016,0,0,0,5,29.77Zm5.173,0a.341.341,0,1,1,.341-.341A.341.341,0,0,1,10.177,29.77ZM9.6,27.044H7.11V25.681h.9ZM4.842,25.87a.339.339,0,0,1,.3-.188H6.429v1.363H4.255ZM2.681,27.726H11.06l.479.481v.881h-.4a1.016,1.016,0,0,0-1.919,0H5a1.016,1.016,0,0,0-1.919,0h-.4ZM4.044,29.77a.341.341,0,1,1,.341-.341A.341.341,0,0,1,4.044,29.77Z" transform="translate(-2 -19.263)" fill="#f7917f"/>
</svg>
