<svg xmlns="http://www.w3.org/2000/svg" width="38.807" height="31.209" viewBox="0 0 38.807 31.209">
  <g id="crown" transform="matrix(0.966, 0.259, -0.259, 0.966, 26.973, -78.24)">
    <path id="Trazado_228" data-name="Trazado 228" d="M33.573,87.606a1,1,0,0,0-1.111-.078L24.206,92.3,17.834,81.49a.995.995,0,0,0-1.714,0L9.749,92.3,1.492,87.529A.995.995,0,0,0,.039,88.665l4.269,14.827a1,1,0,0,0,.956.72H28.691a1,1,0,0,0,.956-.72l4.269-14.827A1,1,0,0,0,33.573,87.606Z" transform="translate(0 0)" fill="#ffae39"/>
    <path id="Trazado_229" data-name="Trazado 229" d="M272.6,87.606a1,1,0,0,0-1.111-.078L263.228,92.3,256.857,81.49A1,1,0,0,0,256,81v23.212h11.713a1,1,0,0,0,.956-.72l4.269-14.827A1,1,0,0,0,272.6,87.606Z" transform="translate(-239.023 0)" fill="#fc9d26"/>
    <path id="Trazado_230" data-name="Trazado 230" d="M19.781,263.241l9.388,5.428,5.634-4.781a1,1,0,0,1,1.288,0l5.634,4.781,9.388-5.428L50.319,266l-8.2,4.744a.994.994,0,0,1-1.142-.1l-5.525-4.688-5.525,4.688a.994.994,0,0,1-1.142.1L20.576,266h0Z" transform="translate(-18.469 -170.155)" fill="#f8eb76"/>
    <path id="Trazado_231" data-name="Trazado 231" d="M262.279,268.668l-5.634-4.781a.993.993,0,0,0-.644-.236v2.3l5.525,4.688a.994.994,0,0,0,1.142.1l8.2-4.744.794-2.757Z" transform="translate(-239.024 -170.154)" fill="#fad557"/>
  </g>
</svg>
