<svg id="outline" xmlns="http://www.w3.org/2000/svg" width="23.895" height="16.951" viewBox="0 0 23.895 16.951">
  <path id="Trazado_203" data-name="Trazado 203" d="M24.942,28.286l.443-.645a1.548,1.548,0,0,0-1.086-.265l-5.417.708a1.565,1.565,0,0,0-1.17.773l-1.444,2.52-1.309-.9a1.394,1.394,0,0,0-1.822.214l.581.524a.609.609,0,0,1,.8-.094l.993.684-.107.114-.383-.15a.391.391,0,0,0-.467.145l-.088.132a.534.534,0,0,0-.575-.086,1.556,1.556,0,0,0-.5.408,1.383,1.383,0,0,0-.72-.4l-.252-.338a.391.391,0,0,0-.294-.156.383.383,0,0,0-.308.126l-.181.2-.21-.3a.391.391,0,0,0-.566-.084l-.228.182L9.059,28.848a1.58,1.58,0,0,0-1.165-.777l-5.426-.7a1.543,1.543,0,0,0-.978.2l.4.674a.759.759,0,0,1,.482-.1l2.141.278-.287,2.336-2.486-.313-.1.776,2.489.315-.334,2.718-2.057-.261-.1.774,5.529.7a2.342,2.342,0,0,0,2.059,2.293,2.424,2.424,0,0,0,.29.018,2.342,2.342,0,0,0,2.257-1.729l1.213.153a.353.353,0,0,0,.049,0A.391.391,0,0,0,13.382,36a.391.391,0,0,0,.347.216.353.353,0,0,0,.049,0l1.291-.163a2.347,2.347,0,0,0,1.98,1.714,2.423,2.423,0,0,0,.29.018,2.347,2.347,0,0,0,2.325-2.061,2.431,2.431,0,0,0,.021-.248l5.526-.7-.1-.776-2.138.271-.334-2.718,2.572-.325-.1-.776-2.568.324-.286-2.336,2.143-.28a.758.758,0,0,1,.54.135Zm-19.653.237,2.507.326a.8.8,0,0,1,.587.391l1.264,2.206L5,30.859Zm5.778,7.1a1.565,1.565,0,1,1-3.106-.381h0a1.565,1.565,0,0,1,1.55-1.374,1.605,1.605,0,0,1,.193.012A1.565,1.565,0,0,1,11.067,35.622Zm1.881-2.186L12.7,35.377l-.845-.107a2.347,2.347,0,0,0-4.571-.576L4.57,34.351,4.9,31.633l5.1.645V32.3a.391.391,0,0,0,.635.289l.38-.3.251.363a.391.391,0,0,0,.3.168.4.4,0,0,0,.315-.126l.193-.211.061.083a.391.391,0,0,0,.264.154.567.567,0,0,1,.551.723Zm5.442-4.191a.782.782,0,0,1,.587-.385l2.506-.327.286,2.333-4.644.587Zm.5,6.377a1.565,1.565,0,1,1-3.106-.381h0a1.565,1.565,0,0,1,1.55-1.374,1.605,1.605,0,0,1,.193.012A1.565,1.565,0,0,1,18.892,35.622Zm.674-.927a2.347,2.347,0,0,0-4.556.451c-.005.041-.006.083-.009.124l-.93.117-.248-1.939a.787.787,0,0,1,.274-.7.708.708,0,0,0,.522.21.391.391,0,0,0,.282-.171l.122-.182.337.132a.391.391,0,0,0,.428-.1l.249-.265,5.829-.736.334,2.719Z" transform="translate(-1.49 -20.827)" fill="#f7917f"/>
  <path id="Trazado_205" data-name="Trazado 205" d="M21.592,23.393l.727-.291-1.047-2.617L23.286,22a.391.391,0,0,0,.61-.2l.852-2.839L25.9,21.828a.391.391,0,0,0,.571.186L28.417,20.8l-.946,1.887.7.35,1.565-3.13a.391.391,0,0,0-.557-.509l-2.731,1.712-1.391-3.478a.381.381,0,0,0-.381-.245.391.391,0,0,0-.357.279l-1.012,3.375-2.681-2.013a.391.391,0,0,0-.6.459Z" transform="translate(-12.758 -14.755)" fill="#f7917f"/>
  <path id="Trazado_206" data-name="Trazado 206" d="M9.846,16.788l.506-.506.506.506.553-.553-.506-.506.506-.506-.553-.553-.506.506-.506-.506-.553.553.506.506-.506.506Z" transform="translate(-6.24 -13.105)" fill="#f7917f"/>
  <rect id="Rectángulo_150" data-name="Rectángulo 150" width="0.782" height="2.505" transform="matrix(0.781, -0.624, 0.624, 0.781, 4.976, 4.434)" fill="#f7917f"/>
  <rect id="Rectángulo_151" data-name="Rectángulo 151" width="3.055" height="0.782" transform="translate(14.007 4.304) rotate(-45)" fill="#f7917f"/>
  <path id="Trazado_207" data-name="Trazado 207" d="M44.846,12.788l.506-.506.506.506.553-.553-.506-.506.506-.506-.553-.553-.506.506-.506-.506-.553.553.506.506-.506.506Z" transform="translate(-27.547 -10.67)" fill="#f7917f"/>
  <rect id="Rectángulo_152" data-name="Rectángulo 152" width="0.782" height="1.214" transform="matrix(0.161, -0.987, 0.987, 0.161, 4.098, 12.424)" fill="#f7917f"/>
  <rect id="Rectángulo_153" data-name="Rectángulo 153" width="1.218" height="0.782" transform="translate(18.272 11.701) rotate(-10.41)" fill="#f7917f"/>
</svg>
