<svg id="outline" xmlns="http://www.w3.org/2000/svg" width="21.593" height="13.675" viewBox="0 0 21.593 13.675">
  <path id="Trazado_201" data-name="Trazado 201" d="M21.789,21.2H20.522l-2.339-2.924a1.791,1.791,0,0,0-1.4-.675H10.605a1.793,1.793,0,0,0-.946.268c-.046-.062-.091-.125-.141-.185-.131-.155-.272-.3-.4-.432l-.128-.127a3.548,3.548,0,0,1-.846-1.067,1.26,1.26,0,0,1,.288-1.426A.36.36,0,0,0,8.154,14,2.719,2.719,0,0,0,6.283,15.05a2.653,2.653,0,0,0-.537,1.7,5.187,5.187,0,0,0,.1.69C5.99,18.244,6,18.6,5.5,18.844a.975.975,0,0,1-1.129-.263c-.207-.248-.208-.616-.007-1.23a.36.36,0,0,0-.556-.4,4.636,4.636,0,0,0-1.744,2.31A2.066,2.066,0,0,0,2.314,20.9a3.042,3.042,0,0,0,.506.593A1.8,1.8,0,0,0,2,23v2.879a.36.36,0,0,0,.36.36H3.562a2.156,2.156,0,0,0,4.066,0h9.608a2.156,2.156,0,0,0,4.066,0h1.925a.36.36,0,0,0,.36-.36V23a1.8,1.8,0,0,0-1.8-1.8Zm-7.917-2.879h2.907a1.076,1.076,0,0,1,.843.4L19.6,21.2H13.872ZM2.763,19.436A3.064,3.064,0,0,1,3.5,18.191a1.4,1.4,0,0,0,.321.851,1.7,1.7,0,0,0,2,.448c1.038-.514.86-1.478.731-2.183a4.636,4.636,0,0,1-.084-.594A1.931,1.931,0,0,1,7.389,15a2.049,2.049,0,0,0,.086,1.329,4.108,4.108,0,0,0,1,1.3l.125.125c.13.13.252.256.363.386.058.069.112.141.163.216L6.862,21.2H3.767c-.276,0-.625-.348-.851-.694a1.347,1.347,0,0,1-.154-1.067ZM5.6,26.955a1.439,1.439,0,1,1,1.439-1.439A1.439,1.439,0,0,1,5.6,26.955Zm7.557-1.439h-5.4a2.159,2.159,0,1,0-4.318,0h-.72V23a1.088,1.088,0,0,1,1.08-1.08h9.356Zm0-4.318H7.783l1.979-2.474a1.076,1.076,0,0,1,.843-.405h2.547Zm6.118,5.758a1.439,1.439,0,1,1,1.439-1.439A1.439,1.439,0,0,1,19.27,26.955Zm3.6-1.439H21.429a2.159,2.159,0,1,0-4.318,0H13.872v-3.6h7.917A1.08,1.08,0,0,1,22.868,23Z" transform="translate(-1.995 -14)" fill="#f7917f"/>
</svg>
