<svg id="outline" xmlns="http://www.w3.org/2000/svg" width="24.895" height="16.597" viewBox="0 0 24.895 16.597">
  <path id="Trazado_197" data-name="Trazado 197" d="M32.66,18.519A1.66,1.66,0,1,0,31,16.86,1.66,1.66,0,0,0,32.66,18.519Zm0-2.489a.83.83,0,1,1-.83.83A.83.83,0,0,1,32.66,16.03Z" transform="translate(-18.968 -13.873)" fill="#f7917f"/>
  <path id="Trazado_198" data-name="Trazado 198" d="M46.576,22.164a.415.415,0,0,0-.466-.066l-.592.3-1.526-1.221a1.665,1.665,0,0,0-1.037-.363H39.878l-.454-.68,1.595-.858a1.258,1.258,0,0,0,.587-1.6l-.948-1.934a1.164,1.164,0,0,0-2.172.835l.424.977-2.4,1.3a1.245,1.245,0,0,0-.439,1.768l1.213,1.946a1.66,1.66,0,0,0,1.381.739h2.653v2.9a.415.415,0,0,0,.415.415H44.22a.415.415,0,0,0,.293-.708l-.708-.708v-1.17l1.446.868a.415.415,0,0,0,.6-.2l.83-2.075A.415.415,0,0,0,46.576,22.164Zm-4.43,3.625v-2.9a.415.415,0,0,0-.415-.415h-3.07a.824.824,0,0,1-.683-.359l-1.213-1.946a.415.415,0,0,1,.14-.591l2.733-1.48a.415.415,0,0,0,.183-.53l-.563-1.292a.335.335,0,0,1,.416-.426.355.355,0,0,1,.224.224L40.846,18a.421.421,0,0,1-.211.531l-2.007,1.079a.415.415,0,0,0-.149.6l.83,1.245a.415.415,0,0,0,.347.187h2.9a.415.415,0,0,1,.415.415v3.319a.415.415,0,0,0,.122.293l.122.122Zm3.115-1.851-1.455-.873v-.977l1.4,1.12a.419.419,0,0,0,.312.088Z" transform="translate(-21.816 -13.756)" fill="#f7917f"/>
  <path id="Trazado_199" data-name="Trazado 199" d="M19.011,32.3H17.144l-2-2.651a1.665,1.665,0,0,0-1.323-.661h-.007l-5.8-.024a1.671,1.671,0,0,0-1.321.664L4.7,32.3H3.66A1.66,1.66,0,0,0,2,33.955v2.489a.415.415,0,0,0,.415.415H3.7a2.075,2.075,0,0,0,2.033,1.66h.007a2.075,2.075,0,0,0,2.026-1.66H14.9a2.075,2.075,0,0,0,2.033,1.66h.007a2.075,2.075,0,0,0,2.026-1.66h1.286a.415.415,0,0,0,.415-.415V33.955A1.66,1.66,0,0,0,19.011,32.3Zm-5.2-2.483h0a.834.834,0,0,1,.664.332L16.1,32.3H11.138l-.01-2.494Zm-6.46.307a.835.835,0,0,1,.657-.332L10.3,29.8l.01,2.5H5.731Zm-1.614,7.57h0a1.245,1.245,0,0,1,0-2.489h0a1.245,1.245,0,0,1,0,2.49ZM7.2,34.972a2.1,2.1,0,0,0-1.469-.6A2.075,2.075,0,0,0,3.7,36.03H2.83V33.955a.83.83,0,0,1,.83-.83h6.651l.009,2.9H7.767A2.057,2.057,0,0,0,7.2,34.972Zm9.745,2.717h0a1.245,1.245,0,0,1,0-2.489h0a1.245,1.245,0,0,1,0,2.49Zm2.9-1.66H18.97a2.075,2.075,0,0,0-4.066,0H11.149l-.009-2.9h7.872a.83.83,0,0,1,.83.83Z" transform="translate(-2 -21.923)" fill="#f7917f"/>
  <path id="Trazado_200" data-name="Trazado 200" d="M13.2,17.336l2.075,1.245.427-.711-1.358-.814,1.3-.519a.415.415,0,0,0,.239-.517l-.568-1.7,1.7.568a.415.415,0,0,0,.517-.239l.565-1.414,1.215,1.519.648-.519L18.3,12.158a.415.415,0,0,0-.709.1L16.9,13.975l-2.119-.705a.415.415,0,0,0-.525.525l.705,2.119-1.711.684a.415.415,0,0,0-.059.741Z" transform="translate(-8.433 -12.002)" fill="#f7917f"/>
</svg>
