<svg xmlns="http://www.w3.org/2000/svg" width="21.67" height="15.942" viewBox="0 0 21.67 15.942">
  <g id="Grupo_1294" data-name="Grupo 1294" transform="translate(-945.127 -620.85)">
    <g id="Grupo_1292" data-name="Grupo 1292" transform="translate(11402 -14580)">
      <g id="outline" transform="translate(-10456.873 15200.196)">
        <path id="Trazado_199" data-name="Trazado 199" d="M19.011,32.3H17.144l-2-2.651a1.665,1.665,0,0,0-1.323-.661h-.007l-5.8-.024a1.671,1.671,0,0,0-1.321.664L4.7,32.3H3.66A1.66,1.66,0,0,0,2,33.955v2.489a.415.415,0,0,0,.415.415H3.7a2.075,2.075,0,0,0,2.033,1.66h.007a2.075,2.075,0,0,0,2.026-1.66H14.9a2.075,2.075,0,0,0,2.033,1.66h.007a2.075,2.075,0,0,0,2.026-1.66h1.286a.415.415,0,0,0,.415-.415V33.955A1.66,1.66,0,0,0,19.011,32.3Zm-5.2-2.483h0a.834.834,0,0,1,.664.332L16.1,32.3H11.138l-.01-2.494Zm-6.46.307a.835.835,0,0,1,.657-.332L10.3,29.8l.01,2.5H5.731Zm-1.614,7.57h0a1.245,1.245,0,0,1,0-2.489h0a1.245,1.245,0,0,1,0,2.49ZM7.2,34.972a2.1,2.1,0,0,0-1.469-.6A2.075,2.075,0,0,0,3.7,36.03H2.83V33.955a.83.83,0,0,1,.83-.83h6.651l.009,2.9H7.767A2.057,2.057,0,0,0,7.2,34.972Zm9.745,2.717h0a1.245,1.245,0,0,1,0-2.489h0a1.245,1.245,0,0,1,0,2.49Zm2.9-1.66H18.97a2.075,2.075,0,0,0-4.066,0H11.149l-.009-2.9h7.872a.83.83,0,0,1,.83.83Z" transform="translate(-2 -21.923)" fill="#f7917f"/>
      </g>
    </g>
    <g id="Grupo_1293" data-name="Grupo 1293" transform="translate(96.071 466.49)">
      <path id="Trazado_1113" data-name="Trazado 1113" d="M864.647,160.03a2.6,2.6,0,0,0,5.2,0,.868.868,0,0,0,.239-1.631.46.46,0,0,0,.071-.245v-.613a.461.461,0,0,0-.31-.434,2.6,2.6,0,0,0-5.2,0,.46.46,0,0,0-.31.434v.613a.452.452,0,0,0,.071.245.868.868,0,0,0,.239,1.631Zm2.6,2.158a2.3,2.3,0,0,1-2.293-2.145h4.586a2.3,2.3,0,0,1-2.292,2.146Zm2.293-5.107h-1.324a5.725,5.725,0,0,0-.246-1.629,2.184,2.184,0,0,0-.2-.457,2.3,2.3,0,0,1,1.771,2.086Zm-2.812-2.086a2.528,2.528,0,0,0-.269.668.155.155,0,1,0,.3.079h0c.149-.557.353-.806.49-.806.1,0,.282.161.432.613a5.376,5.376,0,0,1,.23,1.532h-1.325a6.425,6.425,0,0,1,.056-.746.153.153,0,0,0-.3-.041,6.918,6.918,0,0,0-.059.787h-1.328A2.3,2.3,0,0,1,866.728,154.995Zm-2.085,2.546a.153.153,0,0,1,.153-.153h4.9a.154.154,0,0,1,.153.153v.613a.153.153,0,0,1-.153.153h-4.9a.152.152,0,0,1-.153-.153Zm0,1.094v.234a.153.153,0,1,0,.306,0h0v-.255h4.6v.255a.153.153,0,1,0,.306,0h0v-.234a.562.562,0,0,1,0,1.081v-.234h-.306v.255h-4.6v-.255h-.306v.234a.562.562,0,0,1,0-1.081Z" fill="#f7917f" stroke="#f7917f" stroke-width="0.3"/>
      <path id="Trazado_1115" data-name="Trazado 1115" d="M864.905,158.53l-.006,1.291h4.7V158.53Zm1.638.7a.131.131,0,1,1-.262,0h-.339a.131.131,0,1,1,0-.262h.471a.13.13,0,0,1,.13.131Zm2.116,0h-.34a.131.131,0,0,1-.131.131h0a.131.131,0,0,1-.129-.132v-.131a.13.13,0,0,1,.13-.13h.471a.131.131,0,1,1,0,.262Z" fill="#f7917f"/>
    </g>
  </g>
</svg>
