<svg xmlns="http://www.w3.org/2000/svg" width="80.214" height="66.396" viewBox="0 0 80.214 66.396">
  <g id="Grupo_1606" data-name="Grupo 1606" transform="translate(-1007 -458.604)">
    <path id="Trazado_3700" data-name="Trazado 3700" d="M-10961.1,7617.69s9.416,3.794,9.817,4.345.229,10.729,0,11.731-8.418,7.56-9,7.784a2.106,2.106,0,0,0-.814.5s.109.793-1.261-.5-7.463-7.754-7.92-8.16a5.9,5.9,0,0,1-.947-1.632v-9.333l.947-.8Z" transform="translate(12038.254 -7119.674)" fill="#57e0c1"/>
    <g id="Grupo_1595" data-name="Grupo 1595" transform="translate(405 -525.993)">
      <path id="Trazado_341" data-name="Trazado 341" d="M-10998.48,7589.074a14.97,14.97,0,0,0-3.832.913c-1.485.678-1.483,1-1.788,1.5a4.684,4.684,0,0,0,0,2.758c.249.48,1.821.671,1.788.694s-.187-3.2,2.319-3.043,2.538,3.043,2.538,3.043h13.614s.673-3.386,3.095-3.043,2.591,3.043,2.591,3.043,2.274-.682,2.642-1.264,0-4.3,0-4.3-.2-.544-1.613-.639-3.173-1.57-3.619-1.251-.394.826-1.418,1.251S-10998.48,7589.074-10998.48,7589.074Z" transform="translate(11637.99 -6586.142)" fill="#57e0c1"/>
      <rect id="Rectángulo_337" data-name="Rectángulo 337" width="8" height="8" rx="2" transform="translate(636 1019.993)" fill="#57e0c1"/>
      <rect id="Rectángulo_338" data-name="Rectángulo 338" width="8" height="8" rx="2" transform="translate(636 1033.993)" fill="#57e0c1"/>
      <g id="Grupo_685" data-name="Grupo 685" transform="translate(613.666 984.598)">
        <g id="surface1" transform="translate(18.51 13.127)">
          <path id="Trazado_165" data-name="Trazado 165" d="M240,86.891h2.009v1H240Zm0,0" transform="translate(-227.445 -82.371)" stroke="#000" stroke-width="0.5"/>
          <path id="Trazado_166" data-name="Trazado 166" d="M29.7,3.51,26.29,3.023A17.212,17.212,0,0,0,24.357,2a16.912,16.912,0,0,0-7-1.507h-.593A17.071,17.071,0,0,0,8.616,2.571L6.895,3.51A11.866,11.866,0,0,0,1.152,5.067,2.293,2.293,0,0,0,0,7.052v2.982a.5.5,0,0,0,.5.5H2.189a3,3,0,0,0,5.666,0H21.273a3,3,0,0,0,5.666,0h.18a.5.5,0,0,0,.187-.036l1.627-.653a1.9,1.9,0,0,0,1.2-1.772V4.007A.5.5,0,0,0,29.7,3.51ZM6.99,9.934a2.009,2.009,0,1,1,.041-.4A2.009,2.009,0,0,1,6.99,9.934Zm9.08-.4H8.035a3.013,3.013,0,1,0-6.026,0H1V7.052a1.285,1.285,0,0,1,.646-1.113A10.858,10.858,0,0,1,7.031,4.51h9.04Zm0-6.026H9l.1-.053a16.058,16.058,0,0,1,6.973-1.934Zm1-2.009h.284a15.9,15.9,0,0,1,5.909,1.132l-.877.877H17.075Zm9,8.437a2.009,2.009,0,1,1,.041-.4A2.009,2.009,0,0,1,26.074,9.934Zm3.054-4.922H27.622v1h1.507V8.075a.9.9,0,0,1-.569.839l-1.44.579c0-.046-.006-.092-.009-.138s0-.1-.009-.151-.015-.1-.023-.151-.014-.1-.024-.146-.025-.1-.038-.144-.023-.1-.038-.143-.033-.091-.05-.137-.033-.093-.05-.138-.041-.086-.062-.129-.042-.09-.065-.133-.05-.08-.073-.12-.05-.086-.079-.127-.055-.074-.083-.111-.059-.081-.091-.12-.062-.069-.093-.1-.066-.074-.1-.109-.069-.063-.1-.094-.072-.068-.11-.1-.077-.058-.115-.086-.076-.059-.116-.086-.085-.05-.129-.078-.078-.05-.119-.072-.091-.044-.138-.066-.082-.042-.125-.06-.1-.037-.151-.055-.083-.032-.126-.046-.116-.03-.174-.045c-.038-.009-.075-.021-.113-.029-.062-.013-.125-.02-.188-.029-.037,0-.073-.013-.11-.017a3.061,3.061,0,0,0-.306-.016,3.016,3.016,0,0,0-3.013,3.013H17.075V4.51H22.6a.5.5,0,0,0,.355-.147l1.3-1.3a16.1,16.1,0,0,1,1.592.871A.5.5,0,0,0,26.044,4l3.085.44Zm0,0" transform="translate(0 -0.492)" stroke="#000" stroke-width="0.5"/>
        </g>
        <g id="Car_insurance" data-name="Car insurance" transform="translate(0 0)">
          <path id="Trazado_336" data-name="Trazado 336" d="M29.277,36.453a1.074,1.074,0,0,0-.531-.155h-6.64A1.107,1.107,0,0,0,21,37.405v6.64a1.107,1.107,0,0,0,1.107,1.107h6.64a1.107,1.107,0,0,0,1.107-1.107V38.788l5.09-3.818L33.615,33.2ZM27.64,42.938H23.213V38.512h3.32L24.762,39.84,26.09,41.61l1.549-1.162Z" transform="translate(-1.533 1.326)"/>
          <path id="Trazado_337" data-name="Trazado 337" d="M33.615,45.2l-4.338,3.253a1.074,1.074,0,0,0-.531-.155h-6.64A1.107,1.107,0,0,0,21,49.405v6.64a1.107,1.107,0,0,0,1.107,1.107h6.64a1.107,1.107,0,0,0,1.107-1.107V50.788l5.09-3.818ZM27.64,54.938H23.213V50.512h3.32L24.762,51.84,26.09,53.61l1.549-1.162Z" transform="translate(-1.533 2.605)"/>
          <path id="Trazado_338" data-name="Trazado 338" d="M56.223,25.681V5.32A3.32,3.32,0,0,0,52.9,2H17.492a3.32,3.32,0,0,0-3.32,3.32V29.665H8.64a1.12,1.12,0,0,0-.412.079L2.695,31.957A1.107,1.107,0,0,0,2,32.985V48.477a1.106,1.106,0,0,0,.494.922l3.331,2.213a1.107,1.107,0,0,0,.612.185h7.735V65.076a3.32,3.32,0,0,0,3.32,3.32H52.9a3.308,3.308,0,0,0,2.656-1.347l.976,1.009a1.107,1.107,0,0,0,1.591,0l7.679-7.945a8.392,8.392,0,0,0,2.591-6.1V47.37a1.107,1.107,0,0,0-.657-1.011l-9.959-4.426a1.107,1.107,0,0,0-.9,0l-.657.292V25.681ZM6.772,49.583l-2.558-1.7V33.734l4.639-1.856H21.919a2.213,2.213,0,1,1,0,4.426H11.959a1.107,1.107,0,0,0-1.107,1.107,3.32,3.32,0,0,1-3.32,3.32v2.213a5.542,5.542,0,0,0,5.422-4.426h1.217V49.583ZM57.33,44.155l8.853,3.935v5.92a6.263,6.263,0,0,1-1.958,4.551L57.33,65.7l-6.9-7.135-.013-.013a6.25,6.25,0,0,1-1.944-4.538V48.09Zm-3.32-.946-7.089,3.15a1.107,1.107,0,0,0-.657,1.011v6.64a8.388,8.388,0,0,0,2.585,6.1l5.1,5.277a1.094,1.094,0,0,1-1.045.8H17.492a1.107,1.107,0,0,1-1.107-1.107V38.518h5.533a4.426,4.426,0,1,0,0-8.853H16.386V5.32a1.107,1.107,0,0,1,1.107-1.107H52.9A1.107,1.107,0,0,1,54.01,5.32V27.784c.014.094.018,9.23,0,9.145Z" transform="translate(-2 -2)"/>
          <path id="Trazado_339" data-name="Trazado 339" d="M52.377,52.785a1.106,1.106,0,0,0,.782-.324l6.26-6.26-1.565-1.565-5.478,5.478-2.348-2.348L48.464,49.33l3.131,3.131A1.107,1.107,0,0,0,52.377,52.785Z" transform="translate(1.846 3.651)"/>
        </g>
      </g>
      <g id="Rectángulo_339" data-name="Rectángulo 339" transform="translate(602 1012.993)" fill="#fff" stroke="#000" stroke-width="2">
        <path d="M2,0H9a4,4,0,0,1,4,4V17a4,4,0,0,1-4,4H2a2,2,0,0,1-2-2V2A2,2,0,0,1,2,0Z" stroke="none"/>
        <path d="M2,1H9a3,3,0,0,1,3,3V17a3,3,0,0,1-3,3H2a1,1,0,0,1-1-1V2A1,1,0,0,1,2,1Z" fill="none"/>
      </g>
      <path id="Trazado_342" data-name="Trazado 342" d="M40.708,35.142H31.071a1.071,1.071,0,0,1,0-2.142h9.637a1.071,1.071,0,0,1,0,2.142Z" transform="translate(616.963 992.127)"/>
      <path id="Trazado_343" data-name="Trazado 343" d="M37.8,41.142H31.071a1.071,1.071,0,1,1,0-2.142H37.8a1.071,1.071,0,1,1,0,2.142Z" transform="translate(616.963 999.562)"/>
      <path id="Trazado_344" data-name="Trazado 344" d="M39.037,41.142H31.071a1.071,1.071,0,1,1,0-2.142h7.966a1.071,1.071,0,1,1,0,2.142Z" transform="translate(616.963 989.435)"/>
      <path id="Trazado_345" data-name="Trazado 345" d="M39.768,41.142h-8.7a1.071,1.071,0,1,1,0-2.142h8.7a1.071,1.071,0,1,1,0,2.142Z" transform="translate(616.963 1002.679)"/>
    </g>
  </g>
</svg>
