<svg xmlns="http://www.w3.org/2000/svg" width="93.188" height="37.529" viewBox="0 0 93.188 37.529">
  <g id="Grupo_1605" data-name="Grupo 1605" transform="translate(-654.75 -472.843)">
    <path id="Trazado_3690" data-name="Trazado 3690" d="M-4820.623,7117.51H-4868.3s-13.184.585-17.175,4.967-2.371,13.516-1.2,13.162,5.7,0,5.7,0,.041-10.044,7.943-9.372,8.1,9.372,8.1,9.372h42.875s.549-9.991,8.065-9.372,8.095,9.372,8.095,9.372,7.233-1.88,8.028-3.674,0-14.455,0-14.455-8.6-.835-11.55-2.343-3.86-2.6-5.262-1.845S-4820.623,7117.51-4820.623,7117.51Z" transform="translate(5545.458 -6637.13)" fill="#56ddbf"/>
    <g id="surface1" transform="translate(655 473.093)">
      <path id="Trazado_165" data-name="Trazado 165" d="M240,86.891h6.166v3.084H240Zm0,0" transform="translate(-201.46 -73.016)" stroke="#000" stroke-width="0.5"/>
      <path id="Trazado_166" data-name="Trazado 166" d="M91.173,9.757,80.7,8.262a52.833,52.833,0,0,0-5.934-3.145A51.913,51.913,0,0,0,53.29.492H51.471A52.4,52.4,0,0,0,26.449,6.873L21.164,9.756A36.425,36.425,0,0,0,3.537,14.535,7.038,7.038,0,0,0,0,20.629v9.154a1.541,1.541,0,0,0,1.542,1.542H6.718a9.216,9.216,0,0,0,17.394,0H65.3a9.216,9.216,0,0,0,17.394,0h.553a1.547,1.547,0,0,0,.573-.11l4.993-2A5.83,5.83,0,0,0,92.5,23.771V11.283A1.542,1.542,0,0,0,91.173,9.757ZM21.457,29.475a6.167,6.167,0,1,1,.125-1.233A6.166,6.166,0,0,1,21.457,29.475Zm27.874-1.233H24.665a9.25,9.25,0,1,0-18.5,0H3.083V20.629a3.943,3.943,0,0,1,1.984-3.417,33.33,33.33,0,0,1,16.515-4.386H49.331Zm0-18.5h-21.7l.3-.162A49.292,49.292,0,0,1,49.331,3.643Zm3.083-6.167h.873A48.79,48.79,0,0,1,71.426,7.05L68.734,9.742H52.414Zm27.624,25.9a6.167,6.167,0,1,1,.125-1.233A6.167,6.167,0,0,1,80.038,29.475Zm9.375-15.108H84.788V17.45h4.625v6.321a2.759,2.759,0,0,1-1.745,2.576l-4.422,1.776c0-.142-.018-.282-.028-.424s-.013-.308-.028-.462-.046-.309-.071-.462-.043-.309-.074-.449-.076-.3-.116-.443-.071-.294-.117-.438-.1-.28-.154-.421-.1-.285-.154-.424-.127-.265-.191-.4-.128-.275-.2-.407-.154-.245-.224-.368-.154-.264-.241-.39-.17-.226-.255-.341-.181-.248-.279-.367-.191-.211-.287-.309-.2-.228-.308-.336-.211-.193-.317-.289-.221-.208-.338-.309-.236-.177-.353-.265-.235-.182-.358-.264-.262-.154-.395-.24-.241-.154-.366-.22-.28-.136-.422-.2-.253-.128-.384-.183-.309-.114-.462-.169-.255-.1-.386-.141c-.176-.054-.356-.093-.535-.137-.117-.028-.23-.065-.348-.089-.189-.039-.384-.06-.576-.088-.114-.015-.223-.04-.337-.051A9.4,9.4,0,0,0,74,18.99a9.259,9.259,0,0,0-9.25,9.25H52.415V12.825H69.372a1.539,1.539,0,0,0,1.09-.452l4-4a49.436,49.436,0,0,1,4.887,2.674,1.546,1.546,0,0,0,.6.219l9.469,1.352Zm0,0" transform="translate(0 -0.492)" stroke="#000" stroke-width="0.5"/>
    </g>
  </g>
</svg>
