<svg xmlns="http://www.w3.org/2000/svg" width="77.973" height="81.909" viewBox="0 0 77.973 81.909">
  <g id="Grupo_1598" data-name="Grupo 1598" transform="translate(-221 -399.078)">
    <circle id="Elipse_397" data-name="Elipse 397" cx="2.5" cy="2.5" r="2.5" transform="translate(283 466)" fill="#56ddbf"/>
    <circle id="Elipse_398" data-name="Elipse 398" cx="2.5" cy="2.5" r="2.5" transform="translate(290 468)" fill="#56ddbf"/>
    <circle id="Elipse_400" data-name="Elipse 400" cx="2.5" cy="2.5" r="2.5" transform="translate(223 444)" fill="#56ddbf"/>
    <circle id="Elipse_401" data-name="Elipse 401" cx="2.5" cy="2.5" r="2.5" transform="translate(230 447)" fill="#56ddbf"/>
    <circle id="Elipse_402" data-name="Elipse 402" cx="2.5" cy="2.5" r="2.5" transform="translate(238 446)" fill="#56ddbf"/>
    <circle id="Elipse_399" data-name="Elipse 399" cx="2.5" cy="2.5" r="2.5" transform="translate(277 461)" fill="#56ddbf"/>
    <circle id="Elipse_403" data-name="Elipse 403" cx="3.5" cy="3.5" r="3.5" transform="translate(275 460)" fill="#56ddbf"/>
    <circle id="Elipse_404" data-name="Elipse 404" cx="3.5" cy="3.5" r="3.5" transform="translate(237 446)" fill="#56ddbf"/>
    <circle id="Elipse_405" data-name="Elipse 405" cx="3.5" cy="3.5" r="3.5" transform="translate(229 446)" fill="#56ddbf"/>
    <circle id="Elipse_407" data-name="Elipse 407" cx="3.5" cy="3.5" r="3.5" transform="translate(282 465)" fill="#56ddbf"/>
    <circle id="Elipse_408" data-name="Elipse 408" cx="3.5" cy="3.5" r="3.5" transform="translate(290 467)" fill="#56ddbf"/>
    <circle id="Elipse_406" data-name="Elipse 406" cx="3.5" cy="3.5" r="3.5" transform="translate(221 444)" fill="#56ddbf"/>
    <g id="Copia_de_pulpo_2" data-name="Copia de pulpo 2" transform="translate(208.696 399.078)">
      <g id="Grupo_1597" data-name="Grupo 1597" transform="translate(12.304 0)">
        <g id="Grupo_1596" data-name="Grupo 1596" transform="translate(0 0)">
          <path id="Trazado_3691" data-name="Trazado 3691" d="M244.457,118.38a1.266,1.266,0,0,0,1.624-.758l.212-.582a1.267,1.267,0,1,0-2.382-.867l-.212.582A1.267,1.267,0,0,0,244.457,118.38Z" transform="translate(-206.616 -96.887)"/>
          <path id="Trazado_3692" data-name="Trazado 3692" d="M89.521,63.777A7.961,7.961,0,0,0,85,59.634a7.7,7.7,0,0,1-4.594-9.851L86.357,33.43A24.909,24.909,0,1,0,39.544,16.391L33.592,32.744a7.7,7.7,0,0,1-9.851,4.594,8.009,8.009,0,0,0-10.559,9.274,3.453,3.453,0,0,0,4.146,5.377,7.982,7.982,0,0,0,.932.41c.663.241,1.344.453,2.03.635a3.485,3.485,0,0,0,.235.683,3.456,3.456,0,0,0,6.214.1c.74-.013,1.484-.058,2.226-.141a3.447,3.447,0,0,0,2.874,1.547,3.464,3.464,0,0,0,3.253-2.275h0a3.437,3.437,0,0,0,.191-.877,23.887,23.887,0,0,0,2.434-1.151L37.251,52.2c-1.388,3.812-3.443,7.252-5.235,8.761a8.069,8.069,0,1,0,10.4,12.345A28.174,28.174,0,0,0,47.5,67.524a28.176,28.176,0,0,0,.18,7.7,8.068,8.068,0,0,0,9.336,6.562,8.07,8.07,0,0,0,6.562-9.337c-.4-2.309.234-6.264,1.621-10.077l.422-1.159A23.871,23.871,0,0,0,66.684,63.5a3.473,3.473,0,0,0-.415.794,3.451,3.451,0,0,0,4.224,4.5q.772.81,1.614,1.542a3.453,3.453,0,0,0,5.444,3.537c.644.3,1.3.578,1.967.82a8,8,0,0,0,.978.285c.015.036.028.073.044.109a3.455,3.455,0,0,0,6.588-1.563,8,8,0,0,0,2.393-9.747ZM16.629,49.224a.924.924,0,1,1-.552-1.183A.925.925,0,0,1,16.629,49.224Zm7.9,3.346a.924.924,0,1,1-.552-1.183A.924.924,0,0,1,24.525,52.571Zm8.184-.487a.924.924,0,1,1-.552-1.183A.924.924,0,0,1,32.709,52.084ZM70.385,65.8a.923.923,0,1,1-1.735-.631h0a.923.923,0,0,1,1.735.631Zm5.956,5.634a.923.923,0,1,1-.031-.706A.925.925,0,0,1,76.341,71.43Zm8.2,2.512a.923.923,0,1,1-1.735-.631h0a.923.923,0,0,1,1.735.631Zm2.866-4.9a5.418,5.418,0,0,1-1.357,2.078,3.451,3.451,0,0,0-5.581,1.224l-.084-.028c-.507-.185-1.01-.392-1.5-.616a3.452,3.452,0,0,0-5.318-3.458q-.546-.488-1.061-1.015a3.453,3.453,0,0,0-3.69-5.126,21.3,21.3,0,0,1-1.858-5.124,1.267,1.267,0,0,0-2.428-.158l-1.708,4.693c-1.575,4.328-2.225,8.582-1.737,11.38a5.536,5.536,0,0,1-7.34,6.156,5.555,5.555,0,0,1-3.565-4.253c-1.12-6.42.922-13.45,2.239-17.069h0l2.545-7.014a1.267,1.267,0,1,0-2.382-.865l-2.545,7.013h0c-1.317,3.619-4.271,10.316-9.256,14.515a5.532,5.532,0,0,1-7.8-.668,5.535,5.535,0,0,1,.668-7.8c2.172-1.829,4.409-5.505,5.985-9.833L41.4,48.21a1.267,1.267,0,0,0-1.971-1.432,21.291,21.291,0,0,1-4.877,2.853,3.454,3.454,0,0,0-5.961.955,3.5,3.5,0,0,0-.158.6q-.732.074-1.464.1a3.451,3.451,0,0,0-6.3-.772c-.523-.146-1.042-.31-1.549-.494l-.082-.033a3.451,3.451,0,0,0-3.492-4.525,5.418,5.418,0,0,1,.3-2.465,5.485,5.485,0,0,1,7.022-3.275,10.232,10.232,0,0,0,13.1-6.109l5.952-16.353a22.374,22.374,0,1,1,42.05,15.3L78.024,48.915a10.231,10.231,0,0,0,6.109,13.1,5.479,5.479,0,0,1,3.275,7.023Z" transform="translate(-12.304 0)"/>
          <path id="Trazado_3693" data-name="Trazado 3693" d="M228.265,142.44l-3.551-1.292a1.267,1.267,0,0,0-.867,2.382l3.551,1.292a1.267,1.267,0,0,0,.867-2.382Z" transform="translate(-189.304 -118.502)"/>
          <path id="Trazado_3694" data-name="Trazado 3694" d="M383.371,198.893,379.82,197.6a1.267,1.267,0,0,0-.867,2.382l3.551,1.292a1.267,1.267,0,0,0,.867-2.382Z" transform="translate(-319.596 -165.924)"/>
          <path id="Trazado_3695" data-name="Trazado 3695" d="M399.561,174.835a1.266,1.266,0,0,0,1.624-.757l.212-.582a1.267,1.267,0,1,0-2.381-.867l-.212.582A1.267,1.267,0,0,0,399.561,174.835Z" transform="translate(-336.907 -144.31)"/>
          <path id="Trazado_3696" data-name="Trazado 3696" d="M302.39,146.512a1.267,1.267,0,0,0-1.624.757.95.95,0,1,1-1.785-.65,1.267,1.267,0,1,0-2.382-.867,4.39,4.39,0,0,0,.271,2.958,3.484,3.484,0,0,0,6.278-.575A1.268,1.268,0,0,0,302.39,146.512Z" transform="translate(-252.439 -113.461)"/>
        </g>
      </g>
    </g>
  </g>
</svg>
